<svg width="19" height="18" viewBox="0 0 19 18" fill="none" xmlns="http://www.w3.org/2000/svg">
<path d="M13.2251 6.82715C12.0272 6.82715 11.0527 7.80164 11.0527 8.99956C11.0527 10.1975 12.0272 11.172 13.2251 11.172C14.4231 11.172 15.3976 10.1975 15.3976 8.99956C15.3976 7.80164 14.4231 6.82715 13.2251 6.82715Z" fill="white"/>
<path d="M9.50054 7.75888C10.6984 7.75888 11.6729 6.78439 11.6729 5.58647C11.6729 4.38856 10.6984 3.41406 9.50054 3.41406C8.30262 3.41406 7.32812 4.38856 7.32812 5.58647C7.32812 6.78439 8.30262 7.75888 9.50054 7.75888Z" fill="white"/>
<path d="M5.77593 4.34482C6.97384 4.34482 7.94834 3.37032 7.94834 2.17241C7.94834 0.974496 6.97384 0 5.77593 0C4.57801 0 3.60352 0.974496 3.60352 2.17241C3.60352 3.37032 4.57801 4.34482 5.77593 4.34482Z" fill="white"/>
<path d="M9.50054 10.2412C8.30262 10.2412 7.32812 11.2157 7.32812 12.4136C7.32812 13.6115 8.30262 14.586 9.50054 14.586C10.6984 14.586 11.6729 13.6115 11.6729 12.4136C11.6729 11.2157 10.6984 10.2412 9.50054 10.2412Z" fill="white"/>
<path d="M5.77593 13.6553C4.57801 13.6553 3.60352 14.6298 3.60352 15.8277C3.60352 17.0256 4.57801 18.0001 5.77593 18.0001C6.97384 18.0001 7.94834 17.0256 7.94834 15.8277C7.94834 14.6297 6.97384 13.6553 5.77593 13.6553Z" fill="white"/>
</svg>
