<svg width="1728" height="277" viewBox="0 0 1728 277" fill="none" xmlns="http://www.w3.org/2000/svg">
<g opacity="0.15" clip-path="url(#clip0_1201_3003)">
<g opacity="0.4">
<path d="M0.0411757 145.104C15.4884 154.613 32.8691 163.494 50.411 172.105C91.174 192.107 135.643 210.488 183.656 226.387C242.324 245.82 307.073 261.758 376.516 270.08C412.928 274.443 450.489 276.644 488.03 276.123C530.042 275.544 570.16 271.17 609.816 264.712C697.162 250.492 780.723 232.382 862.954 212.447C927.623 196.77 992.332 181.218 1061.9 171.082C1103.48 165.019 1146.12 160.704 1189.12 157.663C1237.47 154.236 1286.8 151.591 1335.76 152.479C1409.71 153.821 1482.35 163.407 1546.46 181.228C1619.43 201.51 1685.02 232.479 1724.54 268.496C1725.2 269.095 1725.87 269.703 1726.47 270.311C1726.35 270.186 1727.22 269.761 1727.01 269.558C1717.75 260.358 1705.36 251.709 1692.72 243.522C1662.65 224.022 1626.4 206.626 1585.37 192.416C1529.28 172.993 1464.35 159.98 1396.06 154.584C1353.16 151.195 1309.76 150.915 1266.5 152.682C1217.42 154.68 1168.48 157.856 1120.38 163.021C1046.29 170.985 976.764 184.568 908.933 200.728C834.899 218.365 761.67 236.475 684.595 250.975C639.522 259.451 593.301 268.274 545.509 272.493C507.646 275.833 468.817 276.287 430.611 274.095C358.128 269.935 289.129 256.555 226.715 238.754C142.652 214.764 65.4957 182.647 3.70663 146.224C2.65936 145.606 1.61208 144.988 0.584952 144.36C0.705791 144.428 -0.200503 144.959 0.0411757 145.113V145.104Z" fill="white"/>
<path d="M0.622598 143.617C16.6741 153.367 34.7194 162.461 52.946 171.265C95.5216 191.837 142.025 210.691 192.314 226.793C253.096 246.264 320.403 261.942 392.343 269.066C429.521 272.744 467.726 274.038 505.569 272.426C550.38 270.524 592.432 263.853 634.484 256.497C715.044 242.393 791.213 224.128 866.616 204.686C931.205 188.034 996.317 172.134 1066.71 161.863C1109.58 155.597 1153.57 151.205 1197.92 148.125C1245.39 144.834 1293.38 142.459 1341.37 143.945C1414.2 146.204 1485.05 156.843 1547.38 175.059C1619.97 196.278 1684.86 227.71 1725.2 263.834C1725.86 264.432 1726.53 265.031 1727.17 265.639C1727.05 265.514 1727.92 265.089 1727.72 264.886C1718.25 255.715 1705.88 247.085 1693.28 238.86C1662.93 219.08 1626.67 201.288 1585.67 186.557C1530.41 166.709 1466.4 152.807 1398.49 146.61C1308.99 138.452 1215.08 144.206 1126.94 153.599C1051.8 161.612 981.192 175.262 913.039 192.243C843.033 209.677 774.537 228.299 701.812 243.117C657.041 252.24 610.78 261.208 563.572 266.981C525.286 271.653 485.55 273.246 446.157 271.885C372.002 269.317 300.888 256.574 236.682 239.043C148.993 215.093 68.6953 182.154 4.44917 144.785C3.36162 144.148 2.25393 143.511 1.18651 142.864C1.30735 142.932 0.40106 143.472 0.642738 143.617H0.622598Z" fill="white"/>
<path d="M1.18961 142.13C18.1272 152.286 37.1594 161.727 56.4131 170.86C100.358 191.721 148.352 210.787 200.312 226.899C262.283 246.11 331 261.362 404.148 267.348C442.676 270.504 482.15 270.968 520.858 268.236C566.898 264.982 611.226 256.864 654.265 248.658C729.145 234.38 799.131 215.778 869.016 196.722C933.121 179.239 998.374 163.166 1069.13 152.759C1114.18 146.137 1160.48 141.57 1207.12 138.443C1253.77 135.315 1299.63 133.5 1346.21 135.576C1418.09 138.771 1487.35 150.394 1548.13 168.996C1620.35 191.094 1684.68 222.951 1725.81 259.19C1726.49 259.789 1727.16 260.378 1727.8 260.986C1727.68 260.87 1728.55 260.426 1728.34 260.233C1718.52 250.907 1705.89 242.132 1693 233.743C1662.53 213.886 1626.5 195.891 1585.81 180.793C1531.88 160.762 1469.53 146.117 1402.82 139.022C1313.04 129.474 1219.65 134.813 1130.81 144.302C1054.54 152.44 982.806 166.245 914.21 184.037C847.89 201.24 783.744 220.219 715.228 235.452C670.961 245.289 625.384 253.852 578.942 261.015C540.434 266.952 500.175 269.751 459.734 269.24C384.35 268.274 311.424 256.207 245.728 238.995C154.736 215.16 71.5986 181.517 5.09675 143.356C3.96891 142.71 2.82094 142.053 1.73339 141.397C1.85423 141.464 0.947935 142.005 1.18961 142.15V142.13Z" fill="white"/>
<path d="M1.77302 140.643C19.2947 151.011 38.9915 160.636 58.8897 169.942C104.567 191.305 154.494 210.777 208.65 227.004C272.473 246.128 343.506 261.004 418.668 265.551C457.76 267.916 497.576 267.347 536.164 263.427C581.076 258.871 625.021 250.366 667.033 241.649C737.945 226.937 803.501 207.745 869.64 188.776C934.047 170.309 1000.33 153.907 1072.35 143.346C1118.39 136.598 1165.72 131.984 1213.39 128.846C1257.8 125.921 1302.22 124.705 1346.89 127.128C1418.79 131.028 1487.53 143.549 1547.77 162.653C1620.05 185.59 1684.1 217.891 1726.27 254.363C1727.01 255.009 1727.78 255.666 1728.48 256.322C1728.36 256.207 1729.23 255.762 1729.03 255.569C1719 246.234 1706.31 237.44 1693.38 228.993C1662.45 208.778 1626.11 190.359 1585.15 174.74C1531.4 154.245 1469.28 138.818 1402.4 131.028C1314.07 120.737 1223.24 125.458 1135.41 134.745C1057.26 143.008 983.591 157.083 913.867 175.821C849.742 193.053 788.517 212.62 722.78 228.491C682.702 238.174 641.334 246.601 599 253.745C556.667 260.889 517.917 265.609 474.778 266.15C397.924 267.115 322.722 255.801 255.132 238.878C160.818 215.266 74.9613 180.937 6.12323 142.072C4.83427 141.348 3.54532 140.624 2.29665 139.88C2.39735 139.948 1.5112 140.488 1.75288 140.633H1.77302V140.643Z" fill="white"/>
<path d="M2.33881 139.156C20.8473 149.949 41.6518 159.96 62.6778 169.614C109.825 191.257 161.343 210.931 217.292 227.101C282.947 246.07 356.337 260.503 433.392 263.389C519.228 266.604 600.654 252.046 677.084 234.689C744.875 219.291 806.946 199.337 870.427 180.348C933.908 161.36 1002.18 144.476 1075.21 133.828C1123.54 126.78 1173.29 122.069 1223.36 118.961C1265.25 116.364 1307.62 116.132 1349.49 118.913C1420.39 123.633 1487.69 136.878 1546.68 156.176C1619.39 179.953 1683.69 212.833 1726.94 249.739C1727.7 250.386 1728.45 251.032 1729.17 251.689C1729.05 251.573 1729.92 251.129 1729.71 250.936C1719.36 241.466 1706.41 232.526 1693.24 223.925C1662.17 203.643 1626.01 185.059 1585.37 169.112C1532.02 148.192 1470.45 131.993 1403.71 123.392C1317.35 112.261 1229.52 115.939 1143 124.801C1062.22 133.065 985.808 147.372 914.272 167.113C852.12 184.268 793.634 204.27 730.797 220.884C693.498 230.75 654.91 239.458 615.154 246.804C574.633 254.286 533.427 260.86 489.925 262.617C412.688 265.725 335.976 255.56 267.118 239.313C168.291 215.961 78.6085 180.599 6.85014 140.643C5.52091 139.9 4.17154 139.156 2.88259 138.394C2.98329 138.461 2.09713 139.002 2.33881 139.147V139.156Z" fill="white"/>
<path d="M2.92024 137.661C22.476 148.908 44.4486 159.305 66.683 169.316C115.925 191.49 169.779 211.589 228.406 227.759C295.331 246.207 370.352 259.818 448.273 260.774C531.994 261.807 613.48 245.57 686.467 227.257C750.613 211.164 809.079 190.747 869.72 171.932C935.074 151.649 1003.97 134.784 1078.75 124.021C1166.16 111.442 1260.72 103.565 1351.67 110.766C1422.36 116.356 1488.96 130.498 1547.31 150.279C1619.67 174.818 1683.65 208.017 1727.6 245.058C1728.36 245.695 1729.13 246.342 1729.83 246.989C1729.71 246.873 1730.58 246.429 1730.38 246.236C1719.7 236.63 1706.51 227.556 1693.1 218.8C1661.5 198.199 1624.96 179.239 1583.98 162.857C1531.29 141.793 1470.69 125.092 1404.69 115.776C1367.21 110.486 1328.32 107.619 1289.27 107.243C1241.74 106.789 1194.41 110.293 1147.99 114.946C1065.78 123.181 987.659 137.488 915.216 157.837C853.849 175.069 796.975 195.67 736.072 213.249C701.995 223.086 666.73 231.958 630.176 239.468C590.178 247.684 548.247 255.358 505.027 258.419C426.905 263.95 347.976 254.856 277.225 239.053C212.032 224.486 152.439 204.416 98.1415 181.914C66.1594 168.659 35.4461 154.488 7.61282 139.216C6.22317 138.453 4.83352 137.69 3.48415 136.918C3.58485 136.976 2.6987 137.526 2.94038 137.671L2.92024 137.661Z" fill="white"/>
<path d="M3.48395 136.175C23.7245 147.643 46.4423 158.243 69.4219 168.427C120.497 191.065 176.385 211.55 237.348 227.691C305.582 245.763 382.375 258.679 461.203 257.714C503.476 257.192 543.333 251.96 582.726 244.903C620.247 238.184 656.479 229.931 691.2 220.383C753.069 203.364 809.28 182.261 868.511 163.321C934.872 142.092 1005.7 124.947 1082.42 114.106C1169.06 101.866 1261.28 94.5674 1351.02 102.541C1421.77 108.826 1488.05 123.692 1546.12 143.888C1618.9 169.209 1683.27 202.939 1728.2 240.414C1728.97 241.052 1729.73 241.689 1730.46 242.336C1730.34 242.22 1731.2 241.776 1731 241.583C1720.13 231.939 1706.85 222.816 1693.34 213.992C1661.14 192.967 1624.08 173.553 1582.57 156.669C1529.84 135.219 1469.34 117.91 1403.16 107.947C1366.07 102.368 1327.46 99.1432 1288.59 98.4481C1241.82 97.6083 1195.54 100.823 1149.84 105.36C1065.7 113.72 985.584 128.336 911.872 149.525C850.949 167.037 795.162 188.237 735.608 206.752C703.968 216.589 671.221 225.615 637.084 233.309C599.08 241.862 558.74 249.701 517.554 253.862C439.391 261.759 358.912 253.843 286.812 238.609C219.585 224.399 158.219 204.175 102.351 181.45C69.0996 167.925 37.1981 153.426 8.2571 137.758C6.82717 136.985 5.39724 136.213 4.00759 135.431C4.10829 135.489 3.22213 136.049 3.46381 136.184L3.48395 136.175Z" fill="white"/>
<path d="M4.06867 134.687C25.3162 146.542 49.1014 157.47 73.2088 167.964C125.512 190.717 182.709 211.289 245.163 227.227C314.323 244.864 392.426 257.115 471.616 254.325C512.6 252.877 551.712 246.785 589.575 239.391C625.283 232.411 659.52 223.819 692.227 214.04C751.68 196.268 805.695 174.769 863.316 155.732C931.126 133.336 1004.21 115.583 1083.42 104.472C1169.88 92.3466 1260.63 85.5987 1349.83 94.3352C1420.57 101.267 1486.46 116.761 1544.26 137.284C1617.82 163.397 1682.85 197.755 1728.91 235.79C1729.67 236.417 1730.44 237.045 1731.16 237.682C1731.04 237.576 1731.91 237.122 1731.71 236.929C1720.49 227.111 1706.91 217.815 1693.1 208.818C1660.63 187.657 1623.51 168.041 1582.05 150.848C1529.48 129.05 1469.34 111.133 1403.31 100.446C1367.13 94.5959 1329.41 90.9661 1291.29 89.8077C1245.35 88.4176 1200.11 91.053 1155.12 95.3682C1068.62 103.67 985.967 118.469 910.503 140.431C850.124 158.011 795.505 179.509 737.784 198.923C674.142 220.325 604.982 238.628 529.759 248.745C454.537 258.862 370.634 252.684 297.386 238.184C224.137 223.684 163.999 203.846 106.198 180.735C71.8393 166.998 38.8905 152.238 8.96266 136.271C7.51259 135.498 6.04238 134.716 4.63259 133.925C4.73329 133.983 3.84713 134.543 4.08881 134.678L4.06867 134.687Z" fill="white"/>
<path d="M4.63117 133.2C26.5635 145.257 51.0938 156.369 75.9464 167.017C129.377 189.905 187.803 210.593 251.647 226.348C321.29 243.531 400.218 255.154 479.247 250.714C519.164 248.464 557.772 241.774 594.286 233.945C627.758 226.773 659.6 217.998 690.031 208.199C748.054 189.5 800.8 167.374 857.796 147.989C927.117 124.415 1002.62 106.083 1084.41 94.7399C1170.75 82.7598 1260.11 76.6973 1348.77 86.2254C1419.64 93.8518 1485.35 110.022 1543.05 130.96C1616.97 157.788 1682.26 192.589 1729.35 230.982C1730.17 231.657 1731.02 232.333 1731.81 233.028C1731.68 232.922 1732.55 232.468 1732.35 232.275C1720.85 222.332 1707.03 212.91 1693 203.768C1660.01 182.298 1622.49 162.335 1580.68 144.726C1527.97 122.542 1467.79 104.046 1401.49 92.7223C1322 79.1493 1239.45 77.8847 1157.09 85.6462C1068.56 93.987 983.791 109.047 906.917 131.771C845.672 149.872 790.891 172.23 733.392 192.83C673.013 214.455 608.505 232.825 536.404 243.918C459.127 255.811 378.508 250.994 303.97 236.909C233.621 223.616 169.416 203.314 111.07 180.445C75.3422 166.447 41.1246 151.349 9.96824 135.005C8.35705 134.165 6.74586 133.316 5.19509 132.457C5.29579 132.515 4.40963 133.075 4.65131 133.21L4.63117 133.2Z" fill="white"/>
<path d="M5.21833 131.714C28.0166 144.052 53.4533 155.404 79.2323 166.265C134.053 189.356 193.989 210.208 259.544 225.741C329.873 242.413 409.949 253.225 488.676 246.68C560.635 240.694 628.406 222.545 686.932 202.273C745.459 182 796.574 159.353 853.952 139.447C923.938 115.168 1000.83 96.5656 1083.97 85.1067C1170.53 73.1748 1259.11 67.8074 1347.54 78.1561C1418.61 86.4679 1484.21 103.304 1541.87 124.667C1616.23 152.209 1682 187.503 1730.02 226.33C1730.84 227.005 1731.69 227.672 1732.47 228.357C1732.35 228.251 1733.24 227.787 1733.02 227.604C1721.24 217.535 1707.2 207.988 1692.94 198.711C1659.45 176.922 1621.5 156.621 1579.33 138.617C1526.42 116.037 1466.16 96.9807 1399.6 85.0295C1322.24 71.1475 1240.07 68.3963 1159.11 75.8489C1068.54 84.1896 981.639 99.4906 903.275 122.92C841.848 141.291 787.39 164.073 730.898 185.64C673.781 207.438 613.16 226.89 543.939 238.686C506.6 245.058 468.435 248.533 428.699 247.741C388.963 246.95 349.509 242.442 312.15 235.81C240.23 223.028 174.635 202.659 115.061 179.732C78.1649 165.531 42.8396 150.172 10.636 133.539C8.98448 132.689 7.35315 131.84 5.74196 130.971C5.84266 131.029 4.95651 131.589 5.19819 131.724L5.21833 131.714Z" fill="white"/>
<path d="M5.78083 130.227C29.4653 142.835 55.8284 154.429 82.5741 165.502C138.764 188.767 200.191 209.773 267.458 225.045C338.371 241.148 419.454 251.071 497.496 242.267C566.394 234.487 628.807 216.454 684.152 195.833C739.496 175.213 792.766 150.867 850.668 130.488C921.238 105.649 999.461 86.8825 1083.75 75.385C1129.79 69.1005 1177.28 64.1675 1225.27 63.4724C1265.21 62.8932 1305.2 65.0942 1343.89 69.8728C1415.35 78.7059 1481.11 96.0727 1538.99 117.784C1614.51 146.117 1681.38 182.154 1730.66 221.686C1731.48 222.352 1732.33 223.018 1733.12 223.694C1733 223.588 1733.88 223.124 1733.66 222.941C1721.62 212.756 1707.36 203.083 1692.88 193.671C1658.88 171.574 1620.53 150.934 1577.98 132.535C1524.83 109.559 1464.45 89.962 1397.59 77.393C1322.12 63.2021 1240.19 59.0607 1160.36 66.0886C1067.49 74.2652 978.012 90.1358 898.098 114.357C836.611 132.988 782.454 156.138 727.009 178.544C673.357 200.226 616.905 220.537 551.289 233.164C515.098 240.124 477.698 244.739 438.526 244.826C399.032 244.912 359.84 241.07 322.561 234.979C248.224 222.835 180.454 202.195 119.108 178.997C81.0233 164.594 44.5702 148.984 11.2991 132.042C9.62754 131.183 7.93579 130.333 6.30446 129.455C6.40516 129.503 5.51901 130.073 5.76069 130.208L5.78083 130.227Z" fill="white"/>
<path d="M6.36494 128.74C30.8147 141.551 57.9834 153.319 85.5347 164.546C142.812 187.879 205.367 208.962 273.943 223.954C345.883 239.68 427.852 248.629 505.451 237.498C571.328 228.047 628.606 210.053 681.01 189.114C736.677 166.872 788.295 142.391 846.56 121.626C918.378 96.0243 998.595 76.968 1084.85 65.4223C1130.71 59.2825 1177.64 54.6585 1225.41 54.4461C1264.76 54.2723 1304.08 56.8305 1342 61.8408C1414.26 71.3882 1480.46 89.5563 1538.77 111.904C1614.35 140.875 1681.38 177.24 1731.38 217.052C1732.21 217.708 1733.04 218.365 1733.84 219.031C1733.72 218.925 1734.61 218.461 1734.38 218.278C1722.12 208.016 1707.74 198.266 1693.12 188.767C1658.76 166.447 1620.17 145.538 1577.48 126.81C1523.72 103.226 1462.74 82.9243 1395.05 69.6795C1320.41 55.0736 1238.96 50.0826 1159.29 56.5506C1065.66 64.148 974.488 80.8101 894.372 105.234C832.039 124.242 777.48 147.97 722.417 171.4C671.141 193.227 617.811 214.494 554.713 228.047C520.233 235.452 483.76 240.79 445.857 241.649C406.222 242.547 366.607 239.159 328.965 233.366C254.287 221.888 186.093 201.509 124.364 178.65C84.6687 163.947 46.7051 147.941 12.0242 130.565C10.3124 129.706 8.6206 128.856 6.949 127.978C7.04969 128.026 6.16354 128.605 6.40522 128.731L6.36494 128.74Z" fill="white"/>
<path d="M6.92866 127.245C32.1035 140.219 59.9972 152.122 88.2937 163.475C147.082 187.049 211.328 208.393 281.838 223.086C354.16 238.165 433.612 245.231 509.922 232.875C573.282 222.613 627.075 203.537 676.579 182.454C730.957 159.304 782.031 134.437 840.155 113.382C913.021 86.9793 994.95 67.4983 1083 55.7884C1128.34 49.7645 1174.48 45.4204 1221.68 45.488C1261.84 45.5459 1301.86 48.4806 1340.37 53.9156C1412.55 64.1002 1478.51 82.751 1536.71 105.369C1586.44 124.686 1631.05 146.986 1670.88 170.966C1692.8 184.162 1713.64 197.88 1731.93 212.303C1732.79 212.978 1733.66 213.664 1734.49 214.349C1734.36 214.243 1735.25 213.78 1735.03 213.596C1722.62 203.315 1708.16 193.536 1693.48 183.989C1658.52 161.274 1619.39 139.939 1576.13 120.767C1522.33 96.9129 1461.53 76.1865 1393.92 62.3239C1319.54 47.0808 1238.02 41.1438 1157.82 47.0615C1064.17 53.9639 972.011 71.1763 892.136 95.4841C828.494 114.849 773.109 139.176 718.128 163.716C668.402 185.9 617.529 208.306 556.223 222.97C524.463 230.567 490.084 236.408 454.638 238.136C415.385 240.047 375.669 237.335 337.947 232.054C261.476 221.348 191.631 200.834 128.573 177.897C87.7096 163.04 48.6585 146.812 12.8699 129.175C11.0573 128.278 9.24474 127.38 7.47243 126.472C7.57313 126.521 6.68698 127.1 6.92866 127.225V127.245Z" fill="white"/>
<path d="M7.5152 125.757C33.6567 139.002 62.5574 151.146 91.9012 162.711C152.26 186.498 218.279 208.083 290.843 222.361C327.799 229.63 366.931 234.978 406.929 236.224C443.966 237.382 479.936 234.428 514.456 227.999C575.419 216.656 625.97 196.335 672.997 175.068C726.549 150.847 777.724 125.439 836.492 104.037C911.009 76.9003 995.335 57.1779 1085.72 45.5453C1129.77 39.8786 1174.34 36.1426 1220.06 36.5963C1260.13 36.9921 1299.95 40.2744 1338.2 45.9893C1410.54 56.7917 1476.48 75.9542 1534.78 98.9202C1585.03 118.71 1630.2 141.425 1670.64 165.81C1692.8 179.171 1713.93 193.043 1732.51 207.61C1733.4 208.305 1734.29 209.01 1735.15 209.715C1735.03 209.609 1735.92 209.145 1735.7 208.962C1723.11 198.613 1708.51 188.757 1693.68 179.123C1658.18 156.05 1618.52 134.359 1574.82 114.771C1520.82 90.5698 1459.94 69.3897 1392.21 54.9286C1318.18 39.1256 1236.67 32.3198 1156.07 37.6582C1062.08 43.8848 968.771 61.6668 888.856 85.965C823.925 105.716 767.634 130.671 712.632 156.253C664.739 178.534 616.605 201.644 557.978 217.467C528.574 225.402 496.249 231.706 462.817 234.312C424.551 237.295 385.319 235.384 347.98 230.75C269.736 221.048 198.179 200.418 133.832 177.491C91.4581 162.393 50.9569 145.837 13.7988 127.842C11.8654 126.906 9.93199 125.97 8.03884 125.014C8.13954 125.062 7.25338 125.641 7.49506 125.767L7.5152 125.757Z" fill="white"/>
<path d="M8.09992 124.27C35.3089 137.814 65.3374 150.238 95.8291 162.035C157.215 185.783 224.362 207.427 298.174 221.202C334.688 228.018 373.377 232.874 412.71 233.433C448.377 233.935 482.897 230.286 515.504 223.442C574.131 211.134 621.802 189.896 666.633 168.522C719.722 143.211 771.239 117.136 830.833 95.2321C906.217 67.5358 991.972 47.5335 1083.75 35.843C1127.13 30.3114 1171.06 26.9906 1216.05 27.6953C1256.21 28.3324 1296.02 31.8753 1334.21 37.8123C1407.38 49.1843 1473.88 68.9549 1532.77 92.4229C1583.46 112.628 1629.12 135.719 1670.12 160.442C1692.66 174.044 1714.19 188.148 1733.2 202.957C1734.09 203.652 1734.97 204.337 1735.84 205.042C1735.72 204.936 1736.6 204.473 1736.38 204.289C1723.43 193.738 1708.49 183.669 1693.3 173.842C1657.19 150.441 1617.01 128.392 1572.79 108.438C1518.33 83.8601 1457.1 62.207 1388.91 47.2246C1315.16 31.0161 1233.75 23.5056 1152.89 28.3614C1103.2 31.3444 1053.96 38.4205 1007.34 47.0219C964.058 54.9958 922.51 65.0355 883.418 76.9964C817.662 97.1146 760.787 122.571 706.047 149.022C659.383 171.563 613.303 195.398 556.71 212.35C529.803 220.411 500.238 226.869 469.202 230.228C431.52 234.312 392.227 233.067 354.828 228.896C275.819 220.083 203.376 199.482 138.425 176.776C94.6812 161.485 52.9111 144.659 14.5044 126.355C12.5307 125.419 10.5771 124.483 8.66384 123.527C8.76454 123.575 7.87838 124.154 8.12006 124.28L8.09992 124.27Z" fill="white"/>
<path d="M8.65931 122.784C36.9155 136.599 67.9913 149.255 99.5908 161.264C162.105 185.021 230.56 206.79 305.823 220.035C342.578 226.503 381.649 230.886 421.003 230.461C454.495 230.104 486.82 225.702 516.687 218.529C573.059 204.985 618.112 182.791 661.191 161.215C714.018 134.774 766.18 108.014 826.982 85.6661C903.675 57.4679 991.263 37.3401 1084.81 25.7557C1167.49 15.5132 1252.07 16.8261 1332.94 30.1288C1406.22 42.1862 1472.69 62.4878 1531.68 86.3322C1582.59 106.914 1628.53 130.305 1669.92 155.298C1692.69 169.054 1714.47 183.322 1733.8 198.256C1734.73 198.971 1735.63 199.676 1736.52 200.39C1736.4 200.284 1737.28 199.82 1737.06 199.637C1723.93 189.018 1708.85 178.882 1693.54 168.967C1657.09 145.345 1616.65 123.064 1572.24 102.792C1517.34 77.7309 1455.73 55.5082 1387.05 39.879C1313.88 23.2264 1232.84 14.8471 1151.86 18.9788C1102.58 21.4888 1053.92 28.4008 1007.66 36.7512C961.395 45.1016 920.23 55.0255 880.01 67.2856C813.086 87.6934 755.284 113.633 700.524 140.952C654.847 163.754 610.72 188.217 556.403 206.472C531.409 214.88 504.1 221.715 474.716 225.827C438.383 230.915 400.057 230.606 363.161 227.073C283.166 219.417 209.554 198.787 143.878 176.304C98.5636 160.791 55.3234 143.636 15.4464 124.985C13.3519 124.01 11.2775 123.026 9.22322 122.031C9.30378 122.07 8.43777 122.659 8.67945 122.784H8.65931Z" fill="white"/>
<path d="M9.24585 121.297C38.4084 135.295 70.3703 148.115 102.856 160.269C166.437 184.036 236.142 205.969 312.794 218.654C349.187 224.678 387.956 228.559 426.624 227.246C457.861 226.184 487.829 221.27 515.018 213.934C569.698 199.173 612.697 176.053 654.608 154.129C706.689 126.887 759.013 99.731 820.177 77.045C898.018 48.171 987.318 27.6763 1082.64 16.0244C1164.49 6.0136 1249.34 8.49458 1328.81 22.0193C1402.94 34.6366 1470.03 55.5367 1529.64 79.8928C1581.02 100.88 1627.44 124.628 1669.39 149.959C1692.54 163.928 1714.65 178.389 1734.35 193.535C1735.29 194.269 1736.24 194.993 1737.17 195.736C1737.04 195.63 1737.93 195.167 1737.71 194.983C1724.36 184.249 1709.07 174.006 1693.56 163.966C1656.4 139.919 1615.3 117.204 1570.21 96.4971C1514.82 71.0501 1452.81 48.3834 1383.65 32.2329C1310.26 15.0977 1228.77 6.05221 1147.05 9.82678C1098.01 12.0954 1049.79 18.9109 1003.81 27.1937C958.981 35.2641 915.902 45.5163 875.502 57.8246C807.167 78.6379 748.298 105.214 693.296 133.499C648.183 156.687 605.466 181.748 552.881 201.229C529.66 209.831 504.163 217.139 476.289 221.695C441.689 227.352 405.115 227.864 369.266 224.929C288.868 218.345 214.511 197.706 148.573 175.56C101.95 159.902 57.4808 142.516 16.3552 123.624C14.1398 122.61 11.9446 121.597 9.78963 120.554C9.87019 120.593 9.00417 121.191 9.24585 121.307V121.297Z" fill="white"/>
<path d="M9.81165 119.811C40.3235 134.185 73.6751 147.343 107.631 159.787C172.219 183.458 243.172 205.516 321.174 217.419C357.144 222.912 395.671 226.146 433.393 223.694C462.153 221.821 489.281 216.357 513.63 208.904C566.336 192.754 607.402 168.852 648.346 146.581C700.387 118.267 753.657 90.4158 816.191 67.2857C894.596 38.2766 985.548 17.2606 1081.88 6.12032C1163.68 -3.34024 1248.8 0.366756 1327.32 14.4128C1401.27 27.6383 1468.12 48.9052 1527.69 73.493C1579.63 94.9241 1626.64 119.087 1669.2 144.814C1692.6 158.966 1715.01 173.601 1735.03 188.912C1735.98 189.636 1736.93 190.35 1737.83 191.084C1737.71 190.987 1738.6 190.514 1738.38 190.331C1724.72 179.442 1709.17 169.035 1693.38 158.841C1655.78 134.552 1614.31 111.567 1568.9 90.551C1513.21 64.7661 1451.04 41.6746 1381.66 24.9642C1308.71 7.36564 1227.51 -2.50037 1145.58 0.550175C1096.54 2.37471 1048.63 8.95849 1002.67 17.0965C957.029 25.1766 913.165 35.4963 872.019 47.9592C802.416 69.0427 742.459 96.0825 687.236 125.179C642.143 148.936 600.332 174.76 549.117 195.64C527.446 204.473 503.641 212.283 477.157 217.39C445.497 223.491 411.562 224.891 377.827 222.806C296.543 217.776 220.716 196.924 154.235 175.049C105.899 159.15 59.7988 141.416 17.1023 122.147C14.8466 121.124 12.591 120.11 10.3756 119.068C10.4561 119.106 9.59011 119.705 9.83179 119.821L9.81165 119.811Z" fill="white"/>
</g>
<g opacity="0.55">
<path d="M0.984375 96.8934C76.1463 119.937 147.582 145.413 226.893 165.618C296.758 183.419 376.492 198.237 459.166 197.822C540.048 197.417 612.733 175.764 673.776 152.016C738.929 126.665 795.321 96.8644 861.279 71.9388C928.203 46.6463 1006.1 28.6712 1090.75 23.159C1180.78 17.2896 1280.43 25.109 1361.29 41.4333C1430.33 55.3635 1489.98 77.2676 1551.89 96.4494C1616.38 116.423 1684.29 133.307 1758.81 144.64C1773.19 146.822 1760.68 143.849 1754.18 142.854C1659.9 128.509 1580.31 102 1499.91 76.5725C1435.08 56.0779 1369.21 39.6377 1292.59 29.6269C1205.41 18.226 1112.85 13.515 1021.89 24.2981C934.024 34.7047 858.963 59.8235 792.783 88.2245C695.165 130.112 595.594 187.416 455.561 194.077C368.174 198.237 285.984 179.451 214.89 160.019C147.663 141.638 85.7933 119.686 20.8423 99.7702C15.6261 98.1677 4.16647 97.8684 0.984375 96.8934Z" fill="white"/>
</g>
<g opacity="0.7">
<path d="M3.2813 112.851C163.937 147.334 311.039 196.027 484.584 217.844C567.6 228.28 654.766 230.239 740.944 221.58C836.286 212.003 922.726 188.796 1006.77 165.907C1121.41 134.688 1243.65 97.1349 1378.53 94.4223C1464.53 92.6943 1537.09 110.36 1599.41 134.765C1647.2 153.483 1690.38 174.2 1751.04 184.307C1754.26 184.848 1761.25 185.466 1754.14 184.278C1703.69 175.86 1665.12 159.053 1626.15 142.99C1592.09 128.953 1556.23 116.143 1514.7 106.933C1446 91.6999 1369.01 89.3638 1293.06 97.8493C1108.36 118.489 962.865 185.388 783.62 213.21C641.675 235.24 499.527 224.35 369.122 198.421C245.503 173.833 132.66 139.833 10.7935 113.672C9.52466 113.401 -0.525135 112.04 3.30144 112.861L3.2813 112.851Z" fill="white"/>
</g>
</g>
<defs>
<clipPath id="clip0_1201_3003">
<rect width="1728" height="276.094" fill="white"/>
</clipPath>
</defs>
</svg>
