<svg width="209" height="70" viewBox="0 0 209 70" fill="none" xmlns="http://www.w3.org/2000/svg">
<g clip-path="url(#clip0_1201_3125)">
<mask id="mask0_1201_3125" style="mask-type:luminance" maskUnits="userSpaceOnUse" x="0" y="0" width="403" height="157">
<path d="M402.718 0H0V156.728H402.718V0Z" fill="white"/>
</mask>
<g mask="url(#mask0_1201_3125)">
<path d="M29.5044 69.8983C29.352 69.8983 29.2019 69.926 29.0426 69.9306C28.837 69.9537 28.6361 69.9583 28.4376 69.9698C28.3976 69.9675 28.3575 69.9675 28.3175 69.9698C28.1027 69.9813 27.8811 69.9859 27.6663 69.9905C27.4516 69.9951 27.2045 69.9905 26.9736 69.9905C19.7297 69.9905 13.1463 67.4552 8.30859 62.6289H22.2305L29.5044 69.8983Z" fill="white"/>
<path d="M49.849 57.1001C49.789 57.1969 49.7358 57.3052 49.6712 57.4066C49.6643 57.4149 49.6588 57.4242 49.655 57.4343C49.5095 57.6878 49.3479 57.9391 49.1932 58.188C49.1678 58.2364 49.1285 58.2894 49.0962 58.3378C49.0639 58.3862 48.9946 58.4899 48.9461 58.5683C48.8976 58.6466 48.8422 58.725 48.7937 58.7988C48.7452 58.8725 48.7083 58.9278 48.6644 58.9924C48.6584 59.0012 48.653 59.0104 48.6482 59.02C48.6113 59.073 48.5743 59.126 48.5305 59.1814L48.5143 59.2067C48.4173 59.3473 48.3203 59.4879 48.2164 59.6216C48.1707 59.6945 48.1206 59.7645 48.0663 59.8313C48.034 59.8751 48.0017 59.9189 47.974 59.9627L47.7199 60.3015C47.6299 60.4075 47.5421 60.5205 47.4521 60.6242C47.4456 60.6415 47.4344 60.6567 47.4197 60.668C47.4045 60.6921 47.3859 60.7138 47.3643 60.7325C47.1911 60.9515 47.0133 61.1566 46.8355 61.3663C46.8148 61.394 46.7824 61.4217 46.7616 61.4539L46.7016 61.5115C46.6208 61.6037 46.54 61.7005 46.4591 61.7881L46.2051 62.0555C46.1903 62.075 46.1741 62.0935 46.1566 62.1108C46.1566 62.1108 46.1451 62.1269 46.1405 62.1315L46.1197 62.1523C46.0435 62.233 45.9627 62.309 45.8888 62.3966C45.8449 62.4381 45.808 62.4865 45.7595 62.5303C45.6786 62.6156 45.5978 62.6962 45.517 62.7769L45.4777 62.8092C45.3808 62.9129 45.2792 63.0097 45.1706 63.1065C45.0621 63.2033 44.9651 63.2886 44.8635 63.3854C44.8312 63.413 44.8035 63.4407 44.7781 63.466C44.6626 63.5698 44.5471 63.6666 44.4432 63.7634C44.1523 64.01 43.859 64.2589 43.5634 64.4963C43.5196 64.5286 43.4711 64.5608 43.4272 64.5977C43.4272 64.5977 43.4272 64.5977 43.4272 64.6139C43.3943 64.6339 43.3633 64.657 43.3348 64.683C43.2217 64.7752 43.1039 64.8559 42.9838 64.948C42.7529 65.1255 42.5035 65.2915 42.2611 65.4643C42.1433 65.545 42.0302 65.6257 41.9008 65.6948L22.5547 46.3849C22.7208 46.22 22.9366 46.1139 23.1689 46.083H38.8297L49.849 57.1001Z" fill="white"/>
<path d="M53.9509 39.9547C53.9509 40.1852 53.9509 40.3903 53.9509 40.6023C53.9533 40.6269 53.9533 40.6516 53.9509 40.6761V40.8651C53.9509 41.0218 53.9509 41.1785 53.9509 41.326V41.4113C53.9509 41.4228 53.9509 41.4275 53.9509 41.4436C53.9509 41.5404 53.9509 41.6372 53.9509 41.734C53.9509 41.9507 53.9301 42.1719 53.9255 42.3817C53.9255 42.4024 53.9255 42.4254 53.9255 42.4416C53.9305 42.4806 53.9305 42.5201 53.9255 42.5591V42.5868C53.9255 42.8173 53.9001 43.0593 53.877 43.2921C53.877 43.3405 53.877 43.3889 53.877 43.4373C53.877 43.4857 53.877 43.5272 53.8654 43.5779C53.8674 43.597 53.8674 43.6163 53.8654 43.6355V43.6516C53.8654 43.7438 53.8423 43.836 53.8377 43.9213C53.8215 44.0826 53.81 44.244 53.7892 44.4007L39.1953 29.8342C39.3615 29.6679 39.5784 29.5616 39.8119 29.5322H52.9002C53.4247 31.9978 53.7689 34.4983 53.9301 37.0137C53.9832 37.8895 54.0155 38.7746 54.0155 39.6504C54.0155 39.7542 54.0155 39.851 54.0155 39.9524" fill="white"/>
<path d="M4.15116 57.1923C4.59658 57.9709 5.08136 58.7263 5.60363 59.4557C5.62441 59.4833 5.6475 59.511 5.66828 59.541C5.823 59.5018 5.9754 59.4603 6.13011 59.4372L6.34949 59.4073H18.9991V46.7561L19.0314 46.5256C19.1636 45.6074 19.5916 44.7572 20.2506 44.1032C20.9186 43.439 21.7852 43.0102 22.7191 42.8816L22.9362 42.854H35.5812V30.2074L35.6158 29.9769C35.7495 29.0571 36.1799 28.2058 36.842 27.5522C37.5099 26.888 38.3765 26.4592 39.3105 26.3307L39.5275 26.303H52.0432C51.9739 26.0541 51.907 25.8075 51.8354 25.5631C51.6414 24.904 51.4359 24.2471 51.2165 23.604C50.8932 22.6253 50.5407 21.6626 50.1589 20.7161C49.1708 18.2523 47.9822 15.8735 46.6051 13.6034C41.6889 5.55491 34.7129 0.00488281 26.9772 0.00488281C12.0831 0.00488281 0.00390625 20.6308 0.00390625 39.9614C0.00390625 46.2236 1.27395 51.5847 3.49074 55.9662C3.70319 56.3856 3.92256 56.7913 4.15347 57.1969" fill="white"/>
<path d="M165.714 43.5014C165.714 43.4138 165.714 43.3263 165.714 43.2387C165.698 42.9868 165.663 42.7364 165.61 42.4896C165.582 42.3559 165.55 42.2245 165.511 42.0932C165.492 42.0263 165.472 41.9618 165.448 41.8973C165.416 41.7982 165.381 41.7037 165.342 41.6092C165.244 41.3621 165.125 41.1238 164.987 40.897C164.497 40.0926 163.8 39.5371 163.026 39.5371C161.537 39.5371 160.329 41.5999 160.329 43.5314C160.317 44.0854 160.436 44.6344 160.678 45.1332C160.698 45.1747 160.719 45.2162 160.742 45.2554C160.789 45.3338 160.837 45.4098 160.888 45.4859C161.128 45.8252 161.45 46.0994 161.823 46.2837C162.196 46.468 162.61 46.5566 163.026 46.5415H163.172H163.234H163.301H163.368H163.423H163.446H163.481H163.516H163.557H163.585C163.595 46.5426 163.605 46.5426 163.615 46.5415H163.668H163.705H163.742L163.779 46.53L163.85 46.5092H163.876H163.915L163.952 46.4954L163.989 46.4816L164.026 46.4677L164.061 46.4539L164.093 46.4401L164.123 46.4286H164.137L164.176 46.4101L164.206 46.3963L164.241 46.3802L164.278 46.3617L164.317 46.341L164.356 46.3202L164.395 46.2972L164.432 46.2741L164.469 46.2488L164.504 46.2257L164.576 46.175L164.612 46.1474H164.626L164.714 46.0736C164.726 46.0649 164.737 46.0548 164.746 46.0436L164.779 46.016L164.809 45.986L164.832 45.9607L164.846 45.9468L164.869 45.9215C164.876 45.9119 164.885 45.9034 164.894 45.8961L164.917 45.8685L164.97 45.8063C164.979 45.7959 164.988 45.7852 164.996 45.774L165.021 45.7394V45.7279L165.037 45.7071L165.067 45.6657V45.6495L165.081 45.6311L165.095 45.608C165.101 45.6007 165.106 45.593 165.111 45.585V45.5712C165.127 45.5458 165.144 45.5205 165.157 45.4951L165.174 45.4628C165.18 45.4485 165.188 45.4347 165.197 45.4213V45.4052C165.204 45.3942 165.21 45.3826 165.215 45.3706L165.234 45.3338V45.3199L165.254 45.2784C165.254 45.2646 165.254 45.2508 165.273 45.2347V45.2208C165.273 45.207 165.284 45.1955 165.289 45.1839C165.295 45.1713 165.301 45.1582 165.305 45.1448V45.1263L165.34 45.0387V45.0249L165.354 44.9857L165.368 44.9442V44.9212C165.373 44.9086 165.377 44.8954 165.379 44.882C165.379 44.8497 165.4 44.8175 165.409 44.7852L165.423 44.7299V44.7068C165.423 44.6769 165.439 44.6492 165.446 44.6193V44.6054C165.455 44.5722 165.462 44.5383 165.467 44.504C165.468 44.4956 165.468 44.4871 165.467 44.4787C165.468 44.4703 165.468 44.4617 165.467 44.4533V44.4141C165.468 44.4088 165.468 44.4033 165.467 44.398C165.468 44.3911 165.468 44.3841 165.467 44.3773V44.3242V44.2712C165.467 44.2712 165.467 44.2574 165.467 44.2482C165.467 44.239 165.467 44.2205 165.467 44.2067C165.467 44.1929 165.467 44.1767 165.467 44.1606C165.467 44.1445 165.467 44.1422 165.467 44.1329C165.468 44.1284 165.468 44.1237 165.467 44.1191V44.103C165.467 44.0799 165.467 44.0569 165.467 44.0338C165.468 44.0293 165.468 44.0246 165.467 44.02C165.467 43.9993 165.467 43.9762 165.467 43.9555C165.467 43.9347 165.467 43.9347 165.467 43.9255V43.8518V43.7573" fill="white"/>
<path d="M85.6966 15.1748V20.257H78.9654V45.9328H72.7491V20.257H66.0156V15.1748H85.6966Z" fill="white"/>
<path d="M98.2109 14.5732C107.533 14.5732 108.699 21.2065 108.699 30.5549C108.699 39.9033 107.545 46.5366 98.2109 46.5366C88.8772 46.5366 87.7227 39.9033 87.7227 30.5549C87.7227 21.2065 88.8772 14.5732 98.2109 14.5732ZM98.2109 41.9708C101.88 41.9708 102.483 38.8247 102.483 30.5549C102.483 22.3267 101.88 19.1391 98.2109 19.1391C94.5416 19.1391 93.9389 22.3267 93.9389 30.5549C93.9389 38.8247 94.5416 41.9708 98.2109 41.9708Z" fill="white"/>
<path d="M117.329 15.1797H125.011L133.17 45.9377H126.704L125.281 39.4288H117.07L115.645 45.933H109.18L117.329 15.1797ZM118.148 34.3513H124.192L121.213 20.5223H121.125L118.148 34.3513Z" fill="white"/>
<path d="M142.493 15.1748L150.003 36.241H150.088V15.1748H155.785V45.9328H148.707L141.113 24.3941H141.025V45.9328H135.328V15.1748H142.493Z" fill="white"/>
<path d="M170.765 15.1748L175.123 37.9212H175.254L179.829 15.1748H186.26L179.18 45.9328H171.197L164.117 15.1748H170.765Z" fill="white"/>
<path d="M195.708 15.1748L203.218 36.241H203.303V15.1748H209.002V45.9328H201.922L194.327 24.3941H194.24V45.9328H188.543V15.1748H195.708Z" fill="white"/>
<path d="M66.0156 51.3262H67.796L71.0981 56.6088L74.4325 51.3262H76.2129V51.5036L71.9248 57.9825V62.6337H70.3061V57.9825L66.0156 51.5036V51.3262Z" fill="white"/>
<path d="M80.1121 62.8134C77.2949 62.8134 75.5469 60.9235 75.5469 58.6279C75.5469 56.27 77.3942 54.3801 79.8997 54.3801C82.0356 54.3801 84.0284 55.763 84.0284 58.7431H77.1171C77.0686 60.3081 78.3317 61.4236 80.119 61.4236C81.1007 61.4274 82.0481 61.0639 82.7746 60.4049L83.6474 61.3107C82.6129 62.4746 81.3013 62.8134 80.1052 62.8134M82.4674 53.3798H81.2367L79.7311 51.8931L78.2278 53.3798H76.997L78.9067 50.9551H80.5578L82.4674 53.3798ZM77.2557 57.5285H82.4028C81.9663 56.058 80.8164 55.7514 79.9251 55.7514C78.9714 55.7514 77.7891 56.1225 77.2557 57.5285Z" fill="white"/>
<path d="M88.883 61.4237C89.7259 61.4237 91.4901 60.859 91.4901 58.3053V54.5576H93.0603V62.6245H91.4901V61.0111C91.1483 62.1636 90.1046 62.8043 88.7699 62.8043C87.0219 62.8043 85.6641 61.7049 85.6641 59.105V54.5576H87.232V59.1143C87.232 60.8268 88.0263 61.4191 88.883 61.4191" fill="white"/>
<path d="M103.998 55.7699C103.155 55.7699 101.391 56.3346 101.391 58.8883V62.636H99.8203V50.9551H101.391V56.1732C101.73 55.0208 102.776 54.3801 104.111 54.3801C105.856 54.3801 107.217 55.4795 107.217 58.0793V62.636H105.653V58.0793C105.653 56.3668 104.861 55.7745 104.005 55.7745" fill="white"/>
<path d="M113.204 54.3809C114.04 54.3836 114.855 54.6333 115.548 55.0984C116.241 55.5635 116.781 56.2232 117.099 56.9942C117.416 57.7651 117.498 58.6127 117.333 59.43C117.169 60.2473 116.765 60.9975 116.174 61.586C115.582 62.1745 114.829 62.5749 114.01 62.7365C113.191 62.8981 112.342 62.8138 111.57 62.4941C110.799 62.1745 110.14 61.6339 109.676 60.9406C109.212 60.2472 108.965 59.4323 108.965 58.5987C108.973 57.4801 109.422 56.4098 110.216 55.6201C111.01 54.8304 112.084 54.3851 113.204 54.3809ZM113.204 61.4244C113.566 61.4161 113.922 61.3367 114.253 61.1908C114.584 61.0449 114.882 60.8355 115.132 60.5743C115.382 60.3132 115.577 60.0055 115.708 59.6689C115.838 59.3323 115.901 58.9733 115.892 58.6125C115.892 57.0476 114.694 55.7707 113.204 55.7707C111.715 55.7707 110.535 57.0476 110.535 58.6125C110.535 60.1775 111.734 61.4244 113.204 61.4244ZM113.223 63.6693C113.353 63.6684 113.482 63.6933 113.602 63.7426C113.722 63.7919 113.831 63.8645 113.923 63.9563C114.015 64.0482 114.087 64.1573 114.136 64.2774C114.186 64.3975 114.21 64.5261 114.209 64.6558C114.209 64.851 114.151 65.0418 114.042 65.2041C113.934 65.3664 113.779 65.4928 113.598 65.5674C113.418 65.642 113.219 65.6614 113.027 65.6231C112.835 65.5849 112.659 65.4907 112.521 65.3525C112.383 65.2143 112.289 65.0383 112.251 64.8468C112.213 64.6553 112.233 64.4569 112.308 64.2767C112.383 64.0965 112.51 63.9426 112.673 63.8345C112.836 63.7263 113.027 63.6689 113.223 63.6693Z" fill="white"/>
<path d="M123.289 54.3809C124.336 54.3863 125.353 54.7327 126.185 55.3673L125.441 56.4368C124.834 56.0071 124.107 55.7759 123.363 55.7753C121.615 55.7753 120.319 56.9392 120.319 58.601C120.319 60.2628 121.615 61.429 123.363 61.429C124.107 61.4284 124.834 61.1973 125.441 60.7675L126.185 61.8324C125.353 62.467 124.336 62.8134 123.289 62.8188C120.423 62.8188 118.742 60.9934 118.742 58.6978C118.742 56.3238 120.345 54.3855 123.289 54.3855" fill="white"/>
<path d="M135.085 61.4402C135.589 61.4402 136.073 61.1498 136.073 60.5529C136.075 60.3253 136.031 60.0997 135.944 59.8891H137.33C137.427 60.1701 137.476 60.4654 137.475 60.7626C137.475 61.915 136.648 62.8139 135.081 62.8139C133.801 62.8139 132.554 62.1501 132.554 60.0827V55.7865H131.227V54.558H132.554L132.901 52.2324H134.115V54.558H136.688V55.7865H134.115V60.1956C134.115 61.0853 134.552 61.4402 135.085 61.4402Z" fill="white"/>
<path d="M142.566 54.3809C143.401 54.384 144.217 54.6341 144.909 55.0995C145.602 55.5649 146.141 56.2248 146.459 56.9958C146.776 57.7667 146.857 58.6143 146.693 59.4314C146.528 60.2485 146.124 60.9986 145.532 61.5868C144.941 62.1751 144.188 62.5752 143.368 62.7366C142.549 62.8981 141.7 62.8136 140.929 62.4939C140.158 62.1742 139.499 61.6336 139.035 60.9403C138.572 60.2471 138.324 59.4322 138.324 58.5987C138.332 57.4797 138.782 56.409 139.576 55.6193C140.371 54.8295 141.445 54.3845 142.566 54.3809ZM142.566 61.4244C144.053 61.4244 145.252 60.1637 145.252 58.6125C145.252 57.0614 144.053 55.7707 142.566 55.7707C141.079 55.7707 139.894 57.0476 139.894 58.6125C139.894 60.1775 141.093 61.4244 142.566 61.4244Z" fill="white"/>
<path d="M148.102 58.5977C148.102 56.2929 149.688 54.3799 152.115 54.3799C152.688 54.3583 153.257 54.4818 153.769 54.739C154.281 54.9961 154.719 55.3784 155.043 55.8503V54.5573H156.613V62.6242H155.043V61.3312C154.718 61.8027 154.28 62.1846 153.768 62.4417C153.256 62.6988 152.688 62.8226 152.115 62.8017C149.688 62.8017 148.102 60.8956 148.102 58.5862M155.078 58.5862C155.059 56.952 153.944 55.7581 152.307 55.7581C150.623 55.7581 149.667 57.0512 149.667 58.5862C149.667 60.1212 150.623 61.4119 152.307 61.4119C153.941 61.4119 155.057 60.2157 155.078 58.5862ZM154.736 50.9434H152.972L151.565 53.368H152.951L154.736 50.9434Z" fill="white"/>
<path d="M163.28 55.7702C162.438 55.7702 160.676 56.3349 160.676 58.8887V62.6363H159.105V54.5694H160.676V56.1828C161.015 55.0304 162.061 54.3896 163.394 54.3896C165.142 54.3896 166.502 55.4891 166.502 58.0889V62.6363H164.931V58.0797C164.931 56.3672 164.137 55.7749 163.28 55.7749" fill="white"/>
<path d="M125.011 15.1748L115.492 22.0962L117.328 15.1748H125.011Z" fill="#69C07A"/>
</g>
</g>
<defs>
<clipPath id="clip0_1201_3125">
<rect width="209" height="70" fill="white"/>
</clipPath>
</defs>
</svg>
