<svg width="699" height="699" viewBox="0 0 699 699" fill="none" xmlns="http://www.w3.org/2000/svg">
<path fill-rule="evenodd" clip-rule="evenodd" d="M349.5 0C334.112 0 318.957 0.932311 303.568 3.03001L3.03102 303.7C0.932622 318.85 0 334.233 0 349.617C0 352.647 0 355.91 0.233155 358.94L358.826 0.233078C355.795 0 352.531 0 349.5 0ZM406.623 4.66155L4.66311 406.487C6.99466 420.938 10.2588 435.156 14.4556 448.908L193.985 269.205C210.539 236.807 236.886 210.469 269.295 193.921L449.057 14.2177C435.068 10.2554 420.846 6.99233 406.623 4.66155ZM235.021 19.3454C133.831 54.3071 54.3252 134.02 19.1187 235.175L235.021 19.3454ZM487.528 28.4355L340.873 175.041C343.671 174.808 346.469 174.808 349.267 174.808H349.5C362.79 174.808 376.08 176.207 388.903 179.237L522.268 45.6832C511.077 39.3901 499.419 33.5632 487.528 28.4355ZM554.21 66.1941L427.374 192.988C438.799 198.582 449.291 205.575 459.316 213.499L583.122 89.5018C573.796 81.3441 564.236 73.6526 554.21 66.1941ZM609.235 115.84L485.43 239.837C493.357 249.626 500.352 260.348 505.947 271.769L632.784 144.974C625.323 134.719 617.629 124.93 609.235 115.84ZM653.068 176.673L519.703 309.993C522.734 323.046 524.133 336.098 524.133 349.383C524.133 352.18 524.133 354.977 523.9 358.007L670.555 211.401C665.426 199.514 659.597 187.861 653.068 176.673ZM684.311 249.859L504.782 429.562C488.227 461.96 461.881 488.065 429.472 504.846L249.709 684.549C263.699 688.745 277.921 692.008 292.144 694.338L694.104 292.513C691.772 278.062 688.508 263.844 684.311 249.859ZM698.767 340.06L340.174 698.767C343.205 698.767 346.469 699 349.5 699C364.888 699 380.043 698.068 395.432 695.97L695.969 395.3C698.067 380.15 699 364.767 699 349.383C699 346.353 698.767 343.323 698.767 340.06ZM174.867 340.993L28.2118 487.599C33.3412 499.485 39.1701 511.139 45.6985 522.56L179.063 389.007C176.032 375.954 174.633 362.902 174.633 349.617C174.633 346.587 174.867 343.79 174.867 340.993ZM193.053 427.464L66.2161 554.259C73.444 564.281 81.3713 574.07 89.5317 583.16L213.337 459.163C205.643 449.374 198.648 438.885 193.053 427.464ZM679.648 463.825L463.746 679.655C564.936 644.693 644.675 565.213 679.648 463.825ZM239.684 485.501L115.878 609.498C125.204 617.889 134.764 625.581 144.79 632.806L271.626 506.012C260.201 500.185 249.476 493.425 239.684 485.501ZM310.097 519.763L176.732 653.317C188.156 659.843 199.814 665.67 211.705 670.798L358.127 524.192C355.329 524.425 352.531 524.425 349.5 524.425C336.21 524.192 322.92 522.793 310.097 519.763Z" fill="url(#paint0_linear_681_4927)" fill-opacity="0.1"/>
<defs>
<linearGradient id="paint0_linear_681_4927" x1="66.5" y1="78" x2="349.5" y2="699" gradientUnits="userSpaceOnUse">
<stop stop-color="white"/>
<stop offset="1" stop-color="white" stop-opacity="0"/>
</linearGradient>
</defs>
</svg>
