<svg width="160" height="274" viewBox="0 0 160 274" fill="none" xmlns="http://www.w3.org/2000/svg">
<path d="M39.1209 270.011L41.4635 267.9C42.6348 269.308 44.0403 270.481 45.2116 271.654L43.1033 274C41.6977 272.592 40.2922 271.419 39.1209 270.011ZM27.1738 254.995L29.7506 253.118C31.6247 255.699 33.2645 258.28 35.1385 260.626L32.5617 262.503C30.9219 260.157 29.0479 257.576 27.1738 254.995ZM17.5693 238.337L20.3804 236.929C21.7859 239.744 23.1914 242.56 24.8312 245.141L22.0202 246.783C20.3804 243.968 18.9748 241.152 17.5693 238.337ZM10.073 220.74L13.1184 219.566C14.2897 222.617 15.461 225.432 16.6322 228.248L13.8212 229.421C12.4156 226.605 11.2443 223.555 10.073 220.74ZM4.45088 202.204L7.49622 201.5C8.19899 204.55 9.13602 207.6 10.073 210.651L7.02771 211.589C6.09068 208.539 5.15365 205.254 4.45088 202.204ZM1.17128 183.434L4.21662 182.965C4.68514 186.015 5.15365 189.065 5.62217 192.35L2.57683 192.819C1.87406 189.769 1.40554 186.484 1.17128 183.434ZM0.234257 173.814C0 170.529 0 167.479 0 164.194H3.04534C3.04534 167.244 3.04534 170.529 3.2796 173.579L0.234257 173.814ZM0.468514 154.575C0.702771 151.29 1.17128 148.005 1.6398 144.955L4.68514 145.659C4.21662 148.709 3.74811 151.759 3.51385 155.044L0.468514 154.575ZM3.74811 135.804C4.68514 132.754 5.62217 129.469 6.79345 126.654L9.83879 127.827C8.66751 130.643 7.73048 133.693 7.02771 136.743L3.74811 135.804ZM40.5264 129.235L41.932 126.419C44.5088 127.592 47.3199 128.296 50.3652 128.296V131.346C46.8514 131.581 43.5718 130.643 40.5264 129.235ZM59.5013 127.123C61.6096 126.654 63.9521 125.715 66.0605 124.777C66.7632 124.542 67.466 124.308 67.9345 123.838L69.3401 126.654C68.6373 126.888 67.9345 127.358 67.2317 127.592C64.8892 128.531 62.3123 129.469 60.204 130.173L59.5013 127.123ZM75.1965 118.677C77.3048 116.33 78.4761 113.984 78.9446 111.168L81.9899 111.638C81.5214 114.922 80.1159 118.207 77.539 121.023L75.1965 118.677ZM28.1108 113.984L31.1562 112.811C32.3275 115.861 33.733 118.442 35.3728 120.788L32.796 122.665C30.9219 120.319 29.5164 117.269 28.1108 113.984ZM10.5416 117.738C11.9471 114.922 13.5869 112.107 15.461 109.526L18.0378 111.403C16.398 113.984 14.7582 116.565 13.3526 119.38L10.5416 117.738ZM71.6826 96.1522L73.7909 93.8059C76.3678 96.1522 78.7103 98.7331 80.1159 101.549L77.3048 102.956C75.8992 100.376 74.0252 98.0292 71.6826 96.1522ZM25.534 102.253C25.0655 102.722 24.597 103.426 23.8942 103.895L21.5516 101.783C22.7229 100.61 23.8942 99.2024 25.0655 98.0292C25.0655 96.8561 24.8312 95.9176 24.8312 94.7445L27.8766 94.5098C27.8766 94.7445 27.8766 94.9791 27.8766 94.9791C28.1108 94.7445 28.1108 94.7445 28.3451 94.5098L30.4534 96.8561C29.7506 97.56 29.0479 98.2639 28.3451 98.7331C28.5793 100.376 28.8136 101.783 29.0479 103.426L25.7683 104.599C25.534 103.66 25.534 102.956 25.534 102.253ZM55.2846 88.8788L55.7531 85.8286C59.0327 86.2979 62.3123 87.0017 65.3577 88.4095L64.1864 91.225C61.3753 90.0519 58.33 89.348 55.2846 88.8788ZM36.5441 89.348C39.5894 87.7056 42.6348 86.7671 45.9144 86.0632L46.3829 89.1134C43.5718 89.5826 40.5265 90.7558 37.9496 92.1636L36.5441 89.348ZM25.0655 85.1247C25.2997 82.0746 25.534 78.7898 26.0025 75.505L29.0479 75.9742C28.5793 79.0244 28.3451 82.3092 28.1108 85.3593L25.0655 85.1247ZM27.6423 66.1199C28.3451 62.8351 29.2821 59.7849 30.2191 56.7348L33.2645 57.6733C32.3275 60.4888 31.3904 63.539 30.6877 66.5891L27.6423 66.1199ZM33.733 47.8189C35.1385 44.5341 36.7783 41.7186 38.4181 39.3723L40.995 41.2493C39.3552 43.5956 37.9496 46.1765 36.5441 49.2267L33.733 47.8189ZM44.5088 31.6296C46.6171 29.0487 48.7254 26.7024 51.068 24.5907L53.1763 26.937C51.068 29.0487 48.9597 31.395 46.8514 33.7412L44.5088 31.6296ZM148.987 9.10531L149.924 6.05515C152.97 6.99366 156.015 7.93217 159.06 9.10531L157.889 12.1555C155.078 10.9823 152.033 10.0438 148.987 9.10531ZM58.33 18.2558C60.9068 16.3788 63.4836 14.5017 66.2947 12.6247L67.9345 15.4403C65.3577 17.0827 62.7809 18.725 60.204 20.8367L58.33 18.2558ZM130.715 4.64738L131.184 1.59722C134.229 2.06648 137.509 2.77036 140.554 3.47424L139.851 6.5244C137.04 5.82052 133.761 5.35127 130.715 4.64738ZM74.728 8.1668C77.539 6.75903 80.5844 5.58589 83.6297 4.64738L84.5668 7.69754C81.5214 8.63606 78.7103 9.80919 75.8993 11.217L74.728 8.1668ZM112.209 3.23961V0.189453C115.254 0.189453 118.534 0.189453 121.814 0.658708L121.579 3.70887C118.3 3.23961 115.254 3.23961 112.209 3.23961ZM93 2.06648C96.0453 1.36259 99.3249 0.893336 102.605 0.658708L102.839 3.70887C99.7935 4.17812 96.7481 4.64738 93.7028 5.11664L93 2.06648Z" fill="white"/>
</svg>
