<svg width="461" height="511" viewBox="0 0 461 511" fill="none" xmlns="http://www.w3.org/2000/svg">
<g opacity="0.7" clip-path="url(#clip0_681_4955)">
<path d="M-4.43744 143.857C-4.22583 124.725 -5.91871 99.1461 -3.90841 100.309C-1.89811 101.471 18.5223 131.913 58.0935 143.857C58.0935 143.857 103.061 164.785 101.579 184.128C101.579 184.128 102.108 191.104 101.262 191.104C100.416 191.104 99.4633 191.527 99.7807 195.649C100.098 199.877 100.31 199.983 97.0298 200.511C93.644 201.04 90.1525 197.34 89.7292 201.568C89.306 205.796 91.3163 211.821 89.7292 211.821C88.1422 211.821 62.5373 210.976 62.5373 211.821C62.5373 212.667 63.7011 223.448 62.1141 222.603C60.527 221.757 40.5298 221.863 39.6834 222.708C38.8369 223.448 40.8472 233.067 38.8369 233.067C36.8266 233.172 1.17025 232.221 1.17025 233.067C1.17025 233.912 1.91088 243.848 1.06444 243.637C0.323805 243.425 -5.07227 243.531 -5.07227 243.531L-4.64904 212.773L-4.43744 143.857Z" fill="url(#paint0_linear_681_4955)" fill-opacity="0.5"/>
<path d="M1.2757 243.848C1.38151 243.848 1.38151 243.848 1.48731 243.743C2.01634 243.32 1.91054 239.726 1.59312 234.441C1.48732 233.913 1.48731 233.384 1.48731 233.173C2.75697 232.644 23.8122 232.961 32.9115 233.173C36.1914 233.278 38.5191 233.278 39.0482 233.278C39.2598 233.278 39.4714 233.173 39.5772 233.067C40.3178 232.221 40.1062 229.262 40.0004 226.725C39.8946 225.034 39.683 223.131 40.0004 222.92C40.8469 222.18 60.844 222.18 62.3253 222.92C62.5369 223.026 62.7486 223.026 62.7486 222.92C63.595 222.286 63.3834 217.846 62.9602 213.196C62.8544 212.667 62.8543 212.244 62.8543 212.139C63.9124 211.61 81.2645 212.033 86.978 212.139C88.565 212.244 89.6231 212.244 89.9405 212.244C90.1521 212.244 90.2579 212.139 90.4695 212.033C90.9986 211.504 90.7869 209.813 90.4695 207.805C90.2579 205.902 89.9405 203.788 90.1521 201.991C90.2579 201.04 90.4695 200.512 90.8927 200.195C91.5276 199.772 92.4798 200.089 93.6437 200.406C94.8075 200.723 96.0772 201.146 97.3469 200.934C100.627 200.406 100.627 200.195 100.309 196.707C100.309 196.495 100.204 196.178 100.204 195.967C99.992 193.747 100.309 192.373 100.733 191.844C100.944 191.527 101.262 191.527 101.473 191.527C101.579 191.527 101.685 191.527 101.685 191.422C102.32 190.682 101.896 185.08 101.896 184.445C102.637 174.404 90.6811 163.94 80.6296 156.964C69.6259 149.459 58.4105 144.068 58.3047 144.068C24.6587 133.71 4.87308 110.456 -1.68685 102.74C-2.8507 101.366 -3.69714 100.415 -4.01456 100.203C-4.12036 100.098 -4.33198 100.098 -4.43778 100.203C-5.49583 100.837 -5.39003 108.871 -5.07261 123.034C-4.861 129.693 -4.75519 137.304 -4.75519 143.857L-4.861 212.878L-5.28422 243.848H-5.07261C-3.16812 243.743 0.53507 243.743 1.0641 243.954C1.1699 243.848 1.1699 243.848 1.2757 243.848ZM10.0575 232.644C4.55567 232.644 1.48732 232.75 1.1699 233.067C1.0641 233.173 1.0641 233.173 1.0641 233.173C1.0641 233.384 1.0641 233.807 1.1699 234.547C1.27571 236.661 1.69893 243.108 1.2757 243.637C0.429262 243.425 -3.90875 243.531 -4.75519 243.531L-4.33198 212.878L-4.22617 143.963C-4.12036 137.304 -4.33197 129.799 -4.54358 123.14C-4.75519 111.83 -5.07261 101.049 -4.01456 100.52H-3.90875C-3.59134 100.732 -2.8507 101.577 -1.68685 102.951C4.87308 110.562 24.6587 133.921 58.1989 144.174C58.3047 144.28 69.5201 149.459 80.5238 157.069C90.5753 164.046 102.426 174.404 101.685 184.34C102.002 187.933 101.896 190.999 101.579 191.104C101.262 191.104 100.944 191.21 100.627 191.527C100.098 192.161 99.8862 193.536 99.992 195.861C99.992 196.178 100.098 196.389 100.098 196.601C100.309 199.983 100.309 200.089 97.3469 200.512C96.183 200.723 94.9133 200.3 93.7495 199.983C92.5856 199.56 91.5276 199.243 90.7869 199.772C90.2579 200.089 90.0463 200.723 89.9405 201.78C89.7289 203.683 90.0463 205.797 90.2579 207.699C90.4695 209.602 90.6811 211.293 90.3637 211.716C90.2579 211.821 90.1521 211.821 90.0463 211.821C89.7289 211.821 88.6708 211.821 87.1896 211.716C70.3665 211.293 63.2776 211.293 62.8543 211.821C62.7485 211.927 62.7486 211.927 62.7486 212.033C62.7486 212.244 62.8543 212.561 62.8543 213.196C63.066 215.415 63.595 222.074 62.7486 222.708C62.6428 222.708 62.6427 222.814 62.5369 222.708C60.844 221.863 40.8469 221.969 40.0004 222.814C39.683 223.131 39.683 224.505 39.8946 226.831C40.1062 229.262 40.3178 232.221 39.5772 232.961C39.4714 233.067 39.3656 233.173 39.2598 233.173C38.8366 233.173 36.403 233.067 33.1231 233.067C23.2832 232.75 15.5594 232.644 10.0575 232.644Z" fill="url(#paint1_linear_681_4955)"/>
<path d="M151.52 223.025C152.049 223.025 152.366 222.602 152.366 222.18L152.472 212.138C152.472 211.927 152.366 211.715 152.155 211.504C151.943 211.293 151.731 211.187 151.52 211.187L62.7491 210.976C62.2201 210.976 61.9027 211.398 61.9027 211.821L61.7969 221.863C61.7969 222.391 62.2201 222.708 62.6433 222.708C63.1723 222.708 63.4898 222.285 63.4898 221.863V212.772L150.567 212.984V222.074C150.673 222.602 151.097 223.025 151.52 223.025Z" fill="url(#paint2_linear_681_4955)"/>
<path d="M8.57751 601.639C8.68332 601.639 8.78912 601.639 8.89492 601.533L307.371 496.891V531.56C307.371 532.089 307.795 532.406 308.218 532.406C308.641 532.406 309.064 531.983 309.064 531.56V495.728C309.064 495.623 309.064 495.623 309.064 495.623V495.517C308.959 495.306 308.959 495.2 308.853 495.094C308.641 494.988 308.535 494.883 308.324 494.883H248.332C248.226 494.883 248.121 494.883 248.121 494.883L-35.1201 566.758C-35.5433 566.864 -35.8607 567.392 -35.7549 567.815C-35.6491 568.238 -35.1201 568.555 -34.6968 568.449L248.438 496.574H303.139L8.3659 599.948C8.04848 600.053 7.83687 600.37 7.83687 600.793C7.83687 600.899 7.83688 601.005 7.94268 601.11C7.94268 601.427 8.2601 601.639 8.57751 601.639Z" fill="url(#paint3_linear_681_4955)"/>
<path d="M-63.1599 534.837C-63.0541 534.837 -63.0541 534.837 -62.9483 534.837L246.955 460.954V495.729C246.955 496.257 247.379 496.574 247.802 496.574C248.225 496.574 248.648 496.151 248.648 495.729V459.897V459.791C248.648 459.685 248.648 459.685 248.648 459.685C248.542 459.262 248.225 459.051 247.908 458.945H247.802H187.81C187.704 458.945 187.704 458.945 187.704 458.945L-83.1571 495.411C-83.6861 495.517 -84.0035 495.94 -83.8977 496.363C-83.7919 496.891 -83.3687 497.208 -82.9454 497.103L188.022 460.636H240.607L-63.3715 533.146C-63.7947 533.252 -64.0063 533.569 -64.0063 533.992C-64.0063 534.097 -64.0063 534.097 -64.0063 534.203C-63.7947 534.52 -63.4773 534.837 -63.1599 534.837Z" fill="url(#paint4_linear_681_4955)"/>
<path d="M-93.9494 465.182C-93.8436 465.182 -93.8436 465.182 -93.9494 465.182L186.964 433.261V459.897C186.964 460.425 187.387 460.742 187.81 460.742C188.233 460.742 188.656 460.32 188.656 459.897V432.309C188.656 432.098 188.551 431.781 188.339 431.675C188.127 431.464 187.916 431.464 187.704 431.464L-94.161 463.491C-94.69 463.596 -95.0074 464.019 -94.9016 464.442C-94.69 464.865 -94.3726 465.182 -93.9494 465.182Z" fill="url(#paint5_linear_681_4955)"/>
<path d="M-96.8052 453.238L130.253 433.155H187.705C188.234 433.155 188.552 432.732 188.552 432.309C188.552 431.887 188.128 431.464 187.705 431.464H130.253H130.147L-96.911 451.547C-97.44 451.652 -97.7574 451.969 -97.6516 452.498C-97.5458 452.921 -97.2284 453.238 -96.8052 453.238Z" fill="url(#paint6_linear_681_4955)"/>
<path d="M130.358 433.155C130.887 433.155 131.204 432.732 131.204 432.31V416.772C131.204 416.56 131.099 416.349 130.887 416.138C130.675 415.926 130.464 415.821 130.252 415.926L-100.509 431.147C-101.038 431.253 -101.355 431.57 -101.355 432.098C-101.25 432.627 -100.932 432.944 -100.403 432.944L129.512 417.723V432.31C129.512 432.732 129.935 433.155 130.358 433.155Z" fill="url(#paint7_linear_681_4955)"/>
<path d="M-101.567 423.642L89.7286 413.178L130.252 417.617C130.781 417.723 131.098 417.3 131.204 416.877C131.31 416.348 130.887 416.031 130.464 415.926L89.8344 411.486C89.7286 411.486 89.7286 411.486 89.6228 411.486L-101.673 421.951C-102.202 421.951 -102.52 422.373 -102.52 422.796C-102.414 423.219 -101.991 423.642 -101.567 423.642Z" fill="url(#paint8_linear_681_4955)"/>
<path d="M89.0946 413.178C89.6236 413.178 89.941 412.755 89.941 412.333V398.169C89.941 397.64 89.5178 397.323 89.0946 397.323H77.1386L-103.154 397.535C-103.683 397.535 -104 397.957 -104 398.38C-104 398.909 -103.577 399.226 -103.154 399.226L77.1386 398.909H88.2481V412.227C88.2481 412.755 88.6713 413.178 89.0946 413.178Z" fill="url(#paint9_linear_681_4955)"/>
<path d="M77.1386 397.323C77.6676 397.323 77.985 396.9 77.985 396.477V382.313C77.985 381.785 77.5618 381.468 77.1386 381.468H65.8174L-103.154 381.573C-103.683 381.573 -104 381.996 -104 382.419C-104 382.948 -103.577 383.265 -103.154 383.265L65.8174 383.159H76.1863V396.477C76.2921 396.9 76.6095 397.323 77.1386 397.323Z" fill="url(#paint10_linear_681_4955)"/>
<path d="M70.0498 381.468C70.5788 381.468 70.8963 381.046 70.8963 380.623V366.459C70.8963 365.931 70.473 365.614 70.0498 365.614H59.2577L-101.989 365.508C-102.519 365.508 -102.836 365.931 -102.836 366.353C-102.836 366.882 -102.413 367.199 -101.989 367.199L59.1519 367.305H69.2034V380.623C69.2034 381.046 69.5208 381.468 70.0498 381.468Z" fill="url(#paint11_linear_681_4955)"/>
<path d="M59.7856 365.614C60.3146 365.614 60.632 365.191 60.632 364.768V350.604C60.632 350.076 60.2088 349.759 59.7856 349.759H49.6283L-100.404 349.97C-100.933 349.97 -101.25 350.393 -101.25 350.816C-101.25 351.344 -100.827 351.661 -100.404 351.661L49.6283 351.45H58.9391V364.768C58.9391 365.191 59.3624 365.614 59.7856 365.614Z" fill="url(#paint12_linear_681_4955)"/>
<path d="M51.7461 349.653C52.2751 349.653 52.5925 349.23 52.5925 348.807V334.643C52.5925 334.115 52.1693 333.798 51.7461 333.798H-97.8625C-98.3916 333.798 -98.709 334.221 -98.709 334.643C-98.709 335.172 -98.2858 335.489 -97.8625 335.489H50.7938V348.807C50.7938 349.336 51.217 349.653 51.7461 349.653Z" fill="url(#paint13_linear_681_4955)"/>
<path d="M-89.0808 335.595C-88.5518 335.595 -88.2344 335.172 -88.2344 334.75V321.431H41.6945V334.75C41.6945 335.278 42.1177 335.595 42.5409 335.595C43.0699 335.595 43.3874 335.172 43.3874 334.75V320.586C43.3874 320.057 42.9641 319.74 42.5409 319.74H-88.975C-89.504 319.74 -89.8214 320.163 -89.8214 320.586V334.75C-89.9273 335.172 -89.504 335.595 -89.0808 335.595Z" fill="url(#paint14_linear_681_4955)"/>
<path d="M-85.4836 320.797C-84.9546 320.797 -84.6372 320.374 -84.6372 319.952V306.634H37.4621V319.952C37.4621 320.48 37.8853 320.797 38.3085 320.797C38.8375 320.797 39.1549 320.374 39.1549 319.952V305.788C39.1549 305.259 38.7317 304.942 38.3085 304.942H-85.4836C-86.0127 304.942 -86.3301 305.365 -86.3301 305.788V319.952C-86.3301 320.374 -86.0127 320.797 -85.4836 320.797Z" fill="url(#paint15_linear_681_4955)"/>
<path d="M-74.1626 306.633C-73.6336 306.633 -73.3162 306.21 -73.3162 305.788V292.47H37.8851V305.788C37.8851 306.316 38.3083 306.633 38.7316 306.633C39.2606 306.633 39.578 306.21 39.578 305.788V291.624C39.578 291.095 39.1548 290.778 38.7316 290.778H-74.1626C-74.6917 290.778 -75.0091 291.201 -75.0091 291.624V305.788C-75.1149 306.21 -74.6917 306.633 -74.1626 306.633Z" fill="url(#paint16_linear_681_4955)"/>
<path d="M47.4069 291.836C47.9359 291.836 48.2533 291.413 48.2533 290.99L48.3591 277.884C48.3591 277.672 48.2533 277.461 48.0417 277.249C47.8301 277.038 47.6185 276.932 47.4069 276.932L-61.1493 276.615C-61.6783 276.615 -61.9958 277.038 -61.9958 277.461L-62.1016 290.567C-62.1016 291.096 -61.6783 291.413 -61.2551 291.413C-60.7261 291.413 -60.4087 290.99 -60.4087 290.567L-60.3029 278.306L46.5604 278.624L46.4546 290.885C46.4546 291.519 46.8778 291.836 47.4069 291.836Z" fill="url(#paint17_linear_681_4955)"/>
<path d="M59.2584 278.094C59.7875 278.094 60.1049 277.672 60.1049 277.249L60.2107 265.199C60.2107 264.988 60.1049 264.776 59.8932 264.565C59.6816 264.353 59.47 264.248 59.2584 264.248L-49.2978 263.931C-49.8268 263.931 -50.1442 264.353 -50.1442 264.776L-50.25 276.826C-50.25 277.354 -49.8268 277.672 -49.4036 277.672C-48.9803 277.672 -48.5571 277.249 -48.5571 276.826L-48.4513 265.622L58.412 265.939L58.3062 277.143C58.412 277.672 58.8352 278.094 59.2584 278.094Z" fill="url(#paint18_linear_681_4955)"/>
<path d="M-31.6298 265.094C-31.1008 265.094 -30.7833 264.671 -30.7833 264.248V255.158L76.0799 255.475L76.1858 263.085C76.1858 263.614 76.609 263.931 77.0322 263.931C77.4554 263.931 77.8786 263.508 77.8786 263.085L77.7728 254.629C77.7728 254.101 77.3496 253.784 76.9264 253.784L-31.6298 253.467C-32.1588 253.467 -32.4762 253.89 -32.4762 254.312L-32.582 264.354C-32.4762 264.777 -32.1588 265.094 -31.6298 265.094Z" fill="url(#paint19_linear_681_4955)"/>
<path d="M-15.6532 254.418C-15.1242 254.418 -14.8068 253.995 -14.8068 253.572V244.482L92.0565 244.799V252.727C92.0565 253.255 92.4797 253.572 92.903 253.572C93.432 253.572 93.7494 253.15 93.7494 252.727V243.954C93.7494 243.425 93.3262 243.108 92.903 243.108L-15.6532 242.791C-16.1822 242.791 -16.4997 243.214 -16.4997 243.637L-16.6055 253.572C-16.4997 254.101 -16.1822 254.418 -15.6532 254.418Z" fill="url(#paint20_linear_681_4955)"/>
<path d="M109.938 244.165C110.467 244.165 110.785 243.742 110.785 243.319L110.89 233.278C110.89 233.067 110.785 232.855 110.573 232.644C110.361 232.432 110.15 232.327 109.938 232.327L1.38194 232.115C0.85291 232.115 0.535499 232.538 0.535499 232.961L0.429688 243.002C0.429688 243.531 0.852912 243.848 1.27613 243.848C1.80516 243.848 2.12258 243.425 2.12258 243.002V233.912L108.986 234.229V243.319C109.092 243.742 109.515 244.165 109.938 244.165Z" fill="url(#paint21_linear_681_4955)"/>
<path d="M134.274 233.384C134.803 233.384 135.121 232.961 135.121 232.538L135.226 222.497C135.226 222.286 135.121 222.074 134.909 221.863C134.697 221.651 134.486 221.546 134.274 221.546L39.7901 221.229C39.2611 221.229 38.9437 221.651 38.9437 222.074L38.8379 232.116C38.8379 232.644 39.2611 232.961 39.6843 232.961C40.2134 232.961 40.5308 232.538 40.5308 232.116V223.025L133.216 223.342V232.433C133.322 233.067 133.745 233.384 134.274 233.384Z" fill="url(#paint22_linear_681_4955)"/>
<path d="M89.8351 211.398C90.3641 211.398 90.6815 210.976 90.6815 210.553V201.463L169.083 201.674C169.612 201.674 169.93 201.251 169.93 200.828C169.93 200.3 169.506 199.983 169.083 199.983L89.8351 199.771C89.306 199.771 88.9886 200.194 88.9886 200.617L88.8828 210.658C88.9886 210.976 89.4118 211.398 89.8351 211.398Z" fill="url(#paint23_linear_681_4955)"/>
<path d="M163.476 201.991C164.005 201.991 164.323 201.568 164.323 201.146L164.429 191.104C164.429 190.893 164.323 190.681 164.111 190.47C163.9 190.259 163.688 190.153 163.476 190.153L99.9933 189.941C99.4642 189.941 99.1468 190.364 99.1468 190.787L99.041 200.828C99.041 201.357 99.4642 201.674 99.8875 201.674C100.416 201.674 100.734 201.251 100.734 200.828V191.738L162.524 191.95V201.04C162.63 201.568 163.053 201.991 163.476 201.991Z" fill="url(#paint24_linear_681_4955)"/>
<path d="M158.502 192.266C159.031 192.266 159.349 191.844 159.349 191.421L159.454 181.379C159.454 181.168 159.349 180.957 159.137 180.745C158.925 180.534 158.714 180.428 158.502 180.428L101.685 180.217C101.156 180.217 100.838 180.64 100.838 181.062L100.732 191.104C100.732 191.632 101.156 191.949 101.579 191.949C102.108 191.949 102.425 191.527 102.425 191.104V182.014L157.55 182.225V191.315C157.761 191.949 158.079 192.266 158.502 192.266Z" fill="url(#paint25_linear_681_4955)"/>
<path d="M145.489 182.226C146.018 182.226 146.335 181.803 146.335 181.38V172.819C146.335 172.29 145.912 171.973 145.489 171.973L98.9343 171.762C98.4053 171.762 98.0879 172.185 98.0879 172.607C98.0879 173.136 98.5111 173.453 98.9343 173.453L144.642 173.664V181.275C144.642 181.803 145.065 182.226 145.489 182.226Z" fill="url(#paint26_linear_681_4955)"/>
<path d="M136.706 173.558C137.235 173.558 137.552 173.135 137.552 172.712V164.151C137.552 163.622 137.129 163.305 136.706 163.305L91.2097 163.094C90.6807 163.094 90.3633 163.517 90.3633 163.939C90.3633 164.468 90.7865 164.785 91.2097 164.785L135.86 164.996V172.607C135.86 173.241 136.177 173.558 136.706 173.558Z" fill="url(#paint27_linear_681_4955)"/>
<path d="M124.751 164.996C125.28 164.996 125.597 164.574 125.597 164.151V155.589C125.597 155.378 125.491 155.166 125.28 154.955C125.068 154.744 124.857 154.638 124.645 154.638L79.8894 154.532C79.3604 154.532 79.043 154.955 79.043 155.378C79.043 155.906 79.4662 156.223 79.8894 156.223L123.799 156.329V163.939C123.904 164.574 124.328 164.996 124.751 164.996Z" fill="url(#paint28_linear_681_4955)"/>
<path d="M105.283 156.329C105.812 156.329 106.129 155.907 106.129 155.484V146.922C106.129 146.711 106.024 146.499 105.812 146.288C105.6 146.077 105.389 145.971 105.177 145.971L64.4421 145.865C63.9131 145.865 63.5957 146.288 63.5957 146.711C63.5957 147.239 64.0189 147.556 64.4421 147.556L104.331 147.662V155.272C104.437 156.012 104.86 156.329 105.283 156.329Z" fill="url(#paint29_linear_681_4955)"/>
<path d="M87.4021 147.768C87.9311 147.768 88.2485 147.345 88.2485 146.922V138.361C88.2485 138.149 88.1427 137.938 87.9311 137.727C87.7195 137.515 87.5079 137.409 87.2963 137.409L46.5613 137.304C46.0323 137.304 45.7148 137.727 45.7148 138.149C45.7148 138.678 46.1381 138.995 46.5613 138.995L86.4499 139.101V146.711C86.5557 147.345 86.8731 147.768 87.4021 147.768Z" fill="url(#paint30_linear_681_4955)"/>
<path d="M77.4567 139.101C77.9857 139.101 78.3032 138.678 78.3032 138.255V129.693C78.3032 129.482 78.1973 129.271 77.9857 129.059C77.7741 128.848 77.5625 128.742 77.3509 128.742H36.7217H28.0457C27.5166 128.742 27.1992 129.165 27.1992 129.588C27.1992 130.011 27.6224 130.433 28.0457 130.433H36.7217L76.6103 130.539V138.149C76.6103 138.678 77.0335 139.101 77.4567 139.101Z" fill="url(#paint31_linear_681_4955)"/>
<path d="M62.008 130.538C62.5371 130.538 62.8545 130.116 62.8545 129.693V121.131C62.8545 120.92 62.7487 120.708 62.5371 120.497C62.3254 120.286 62.1138 120.18 61.9022 120.18L21.1672 120.074H16.7234C16.1944 120.074 15.877 120.497 15.877 120.92C15.877 121.448 16.3002 121.765 16.7234 121.765H21.1672L61.0558 121.871V129.481C61.1616 130.116 61.479 130.538 62.008 130.538Z" fill="url(#paint32_linear_681_4955)"/>
<path d="M43.7049 121.872C44.2339 121.872 44.5513 121.449 44.5513 121.026V113.627C44.5513 113.099 44.1281 112.781 43.7049 112.781L13.8678 112.676H9.00074C8.47172 112.676 8.1543 113.099 8.1543 113.521C8.1543 114.05 8.57752 114.367 9.00074 114.367H13.8678L42.7526 114.473V121.026C42.7526 121.555 43.1758 121.872 43.7049 121.872Z" fill="url(#paint33_linear_681_4955)"/>
<path d="M34.7105 114.472C35.2395 114.472 35.5569 114.05 35.5569 113.627V106.228C35.5569 105.699 35.1337 105.382 34.7105 105.382L2.54566 105.171C2.01663 105.171 1.69922 105.594 1.69922 106.016C1.69922 106.439 2.12243 106.862 2.54566 106.862H4.97918L33.864 106.968V113.521C33.864 114.05 34.2872 114.472 34.7105 114.472Z" fill="url(#paint34_linear_681_4955)"/>
<path d="M27.0924 106.65C27.4098 106.65 27.6214 106.333 27.6214 106.122V99.6742C27.6214 99.4628 27.5156 99.3571 27.4098 99.2514C27.304 99.1457 27.0924 99.04 26.9866 99.04L-3.27371 99.1457C-3.59112 99.1457 -3.80273 99.4628 -3.80273 99.6742C-3.80273 99.9913 -3.48532 100.203 -3.27371 100.203L26.5634 100.308V106.228C26.5634 106.439 26.775 106.65 27.0924 106.65Z" fill="url(#paint35_linear_681_4955)"/>
<path d="M18.1002 100.414C18.4176 100.414 18.6292 100.097 18.6292 99.8855V93.4379C18.6292 93.2265 18.5234 93.1208 18.4176 93.0151C18.3118 92.9094 18.1002 92.8037 17.9944 92.8037H-12.2659C-12.5833 92.8037 -12.7949 93.1208 -12.7949 93.3322C-12.7949 93.6493 -12.4775 93.8607 -12.2659 93.8607L17.5712 93.9664V99.8855C17.5712 100.203 17.7828 100.414 18.1002 100.414Z" fill="url(#paint36_linear_681_4955)"/>
<path d="M10.2705 92.8039C10.5879 92.8039 10.7995 92.4868 10.7995 92.2754V85.8278C10.7995 85.6164 10.6937 85.5107 10.5879 85.405C10.4821 85.2993 10.2705 85.1936 10.1647 85.1936L-20.2014 85.0879C-20.5189 85.0879 -20.7305 85.405 -20.7305 85.6164C-20.7305 85.9335 -20.4131 86.1449 -20.2014 86.1449L9.63564 86.2506V92.1697C9.74145 92.5925 9.95305 92.8039 10.2705 92.8039Z" fill="url(#paint37_linear_681_4955)"/>
<path d="M1.06539 86.885C1.38281 86.885 1.59442 86.5679 1.59442 86.3565V79.9088C1.59442 79.6974 1.48861 79.5917 1.3828 79.486C1.277 79.3803 1.06539 79.2746 0.959581 79.2746L-29.4065 79.1689C-29.7239 79.1689 -29.9355 79.486 -29.9355 79.6974C-29.9355 80.0145 -29.6181 80.2259 -29.4065 80.2259L0.430553 80.3316V86.2508C0.53636 86.6736 0.747976 86.885 1.06539 86.885Z" fill="url(#paint38_linear_681_4955)"/>
<path d="M-4.3306 233.595C-3.80157 233.595 -3.48416 233.172 -3.48416 232.749V102C8.15442 115.741 21.5917 129.799 43.2818 138.677C72.2724 150.516 86.4503 161.085 93.2218 167.85C100.311 174.932 101.263 179.688 101.263 180.745C101.157 180.851 101.051 180.957 101.051 181.168C100.946 181.591 101.263 182.12 101.686 182.225C102.109 182.331 102.639 182.12 102.85 181.485C103.273 180.217 102.639 174.826 94.4915 166.793C84.44 156.857 67.4054 146.922 43.9166 137.197C21.5917 128.107 8.15442 113.415 -3.69576 99.1458C-3.90737 98.8287 -4.3306 98.723 -4.64801 98.8287C-4.96543 98.9344 -5.17704 99.2515 -5.17704 99.6743V232.749C-5.28284 233.172 -4.85963 233.595 -4.3306 233.595Z" fill="url(#paint39_linear_681_4955)"/>
<path d="M93.0086 244.588H116.286C116.815 244.588 117.132 244.165 117.132 243.742C117.132 243.214 116.709 242.896 116.286 242.896H93.0086C92.4795 242.896 92.1621 243.319 92.1621 243.742C92.1621 244.165 92.4795 244.588 93.0086 244.588Z" fill="url(#paint40_linear_681_4955)"/>
<path d="M109.938 233.595H143.584C144.113 233.595 144.431 233.173 144.431 232.75C144.431 232.327 144.008 231.904 143.584 231.904H109.938C109.409 231.904 109.092 232.327 109.092 232.75C109.092 233.173 109.409 233.595 109.938 233.595Z" fill="url(#paint41_linear_681_4955)"/>
<path d="M134.274 223.237H156.917C157.446 223.237 157.763 222.814 157.763 222.391C157.763 221.969 157.34 221.546 156.917 221.546H134.274C133.745 221.546 133.428 221.969 133.428 222.391C133.428 222.814 133.745 223.237 134.274 223.237Z" fill="url(#paint42_linear_681_4955)"/>
<path d="M151.52 212.879H165.381C165.91 212.879 166.227 212.456 166.227 212.033C166.227 211.505 165.804 211.188 165.381 211.188H151.52C150.991 211.188 150.674 211.61 150.674 212.033C150.674 212.456 151.097 212.879 151.52 212.879Z" fill="url(#paint43_linear_681_4955)"/>
<path d="M77.1394 255.263H90.5767C91.1057 255.263 91.4231 254.841 91.4231 254.418C91.4231 253.889 90.9999 253.572 90.5767 253.572H77.1394C76.6104 253.572 76.293 253.995 76.293 254.418C76.293 254.946 76.6104 255.263 77.1394 255.263Z" fill="url(#paint44_linear_681_4955)"/>
<path d="M59.4695 265.622H73.9648C74.4938 265.622 74.8113 265.199 74.8113 264.776C74.8113 264.353 74.388 263.931 73.9648 263.931H59.4695C58.9405 263.931 58.623 264.353 58.623 264.776C58.623 265.199 59.0463 265.622 59.4695 265.622Z" fill="url(#paint45_linear_681_4955)"/>
<path d="M45.9265 278.729L58.4115 278.623C58.9406 278.623 59.258 278.2 59.258 277.777C59.258 277.249 58.8348 276.932 58.4115 276.932L45.9265 277.037C45.3975 277.037 45.0801 277.46 45.0801 277.883C45.0801 278.411 45.5033 278.729 45.9265 278.729Z" fill="url(#paint46_linear_681_4955)"/>
<path d="M38.7319 292.47H46.1383C46.6673 292.47 46.9847 292.047 46.9847 291.624C46.9847 291.095 46.5615 290.778 46.1383 290.778H38.7319C38.2029 290.778 37.8855 291.201 37.8855 291.624C37.7797 292.047 38.2029 292.47 38.7319 292.47Z" fill="url(#paint47_linear_681_4955)"/>
<g opacity="0.64">
<path d="M168.977 202.414C168.977 202.625 168.871 202.731 168.871 202.943C168.553 204.317 168.024 205.691 167.495 207.065C166.437 209.602 164.956 212.033 163.475 214.252C161.147 217.635 158.29 220.7 155.328 223.448C151.201 227.359 146.546 230.636 141.679 233.595C135.225 237.612 128.242 240.889 121.153 243.637C112.054 247.23 102.319 249.344 93.5376 253.678C89.1996 255.792 84.8616 258.223 80.841 260.866C75.4449 264.248 70.2604 268.053 65.4992 272.281C59.9973 277.038 54.9187 282.428 50.5807 288.242C45.8194 294.584 41.9046 301.56 39.0479 308.959L38.7305 319.951L42.3279 320.48L43.1743 335.489H52.2735L51.4271 350.498H59.6799V366.353H69.943L70.2604 383.054L77.3494 383.794L77.6668 398.909L88.4589 398.697L89.517 412.227L130.252 416.666V432.098L170.035 432.838V202.625" fill="url(#paint48_linear_681_4955)"/>
<path d="M168.977 202.414C168.977 202.625 168.871 202.731 168.871 202.943C168.554 204.317 168.024 205.691 167.495 207.065C166.437 209.602 164.956 212.033 163.475 214.252C161.147 217.635 158.29 220.7 155.328 223.448C151.201 227.359 146.546 230.636 141.679 233.595C135.225 237.612 128.242 240.889 121.153 243.637C112.054 247.23 102.319 249.344 93.5376 253.678C89.1996 255.792 84.8616 258.223 80.841 260.866C75.4449 264.248 70.2604 268.053 65.4992 272.281C59.9973 277.038 54.9187 282.428 50.5807 288.242C45.8194 294.584 41.9046 301.56 39.0479 308.959L38.7305 319.951L42.3279 320.48L43.1743 335.489H52.2735L51.4271 350.498H59.6799V366.353H69.943L70.2604 383.054L77.3494 383.794L77.6668 398.909L88.4589 398.697L89.517 412.227L130.252 416.666V432.098L170.035 432.838V202.625" stroke="url(#paint49_linear_681_4955)" stroke-miterlimit="10"/>
</g>
</g>
<defs>
<linearGradient id="paint0_linear_681_4955" x1="48.3353" y1="100.271" x2="48.3353" y2="243.64" gradientUnits="userSpaceOnUse">
<stop stop-color="white"/>
<stop offset="1" stop-color="white" stop-opacity="0"/>
</linearGradient>
<linearGradient id="paint1_linear_681_4955" x1="48.3718" y1="100.124" x2="48.3718" y2="243.954" gradientUnits="userSpaceOnUse">
<stop stop-color="white"/>
<stop offset="1" stop-color="white" stop-opacity="0"/>
</linearGradient>
<linearGradient id="paint2_linear_681_4955" x1="107.134" y1="211.078" x2="107.134" y2="223.058" gradientUnits="userSpaceOnUse">
<stop stop-color="white"/>
<stop offset="1" stop-color="white" stop-opacity="0"/>
</linearGradient>
<linearGradient id="paint3_linear_681_4955" x1="136.644" y1="494.883" x2="136.644" y2="601.639" gradientUnits="userSpaceOnUse">
<stop stop-color="white"/>
<stop offset="1" stop-color="white" stop-opacity="0"/>
</linearGradient>
<linearGradient id="paint4_linear_681_4955" x1="82.3651" y1="458.945" x2="82.3651" y2="534.837" gradientUnits="userSpaceOnUse">
<stop stop-color="white"/>
<stop offset="1" stop-color="white" stop-opacity="0"/>
</linearGradient>
<linearGradient id="paint5_linear_681_4955" x1="46.8673" y1="431.378" x2="46.8673" y2="465.185" gradientUnits="userSpaceOnUse">
<stop stop-color="white"/>
<stop offset="1" stop-color="white" stop-opacity="0"/>
</linearGradient>
<linearGradient id="paint6_linear_681_4955" x1="45.4398" y1="431.378" x2="45.4398" y2="453.204" gradientUnits="userSpaceOnUse">
<stop stop-color="white"/>
<stop offset="1" stop-color="white" stop-opacity="0"/>
</linearGradient>
<linearGradient id="paint7_linear_681_4955" x1="14.9245" y1="415.885" x2="14.9245" y2="433.131" gradientUnits="userSpaceOnUse">
<stop stop-color="white"/>
<stop offset="1" stop-color="white" stop-opacity="0"/>
</linearGradient>
<linearGradient id="paint8_linear_681_4955" x1="14.3505" y1="411.467" x2="14.3505" y2="423.622" gradientUnits="userSpaceOnUse">
<stop stop-color="white"/>
<stop offset="1" stop-color="white" stop-opacity="0"/>
</linearGradient>
<linearGradient id="paint9_linear_681_4955" x1="-7.0295" y1="397.296" x2="-7.0295" y2="413.151" gradientUnits="userSpaceOnUse">
<stop stop-color="white"/>
<stop offset="1" stop-color="white" stop-opacity="0"/>
</linearGradient>
<linearGradient id="paint10_linear_681_4955" x1="-13.0075" y1="381.432" x2="-13.0075" y2="397.287" gradientUnits="userSpaceOnUse">
<stop stop-color="white"/>
<stop offset="1" stop-color="white" stop-opacity="0"/>
</linearGradient>
<linearGradient id="paint11_linear_681_4955" x1="-15.9698" y1="365.456" x2="-15.9698" y2="381.417" gradientUnits="userSpaceOnUse">
<stop stop-color="white"/>
<stop offset="1" stop-color="white" stop-opacity="0"/>
</linearGradient>
<linearGradient id="paint12_linear_681_4955" x1="-20.309" y1="349.702" x2="-20.309" y2="365.557" gradientUnits="userSpaceOnUse">
<stop stop-color="white"/>
<stop offset="1" stop-color="white" stop-opacity="0"/>
</linearGradient>
<linearGradient id="paint13_linear_681_4955" x1="-23.0582" y1="333.836" x2="-23.0582" y2="349.691" gradientUnits="userSpaceOnUse">
<stop stop-color="white"/>
<stop offset="1" stop-color="white" stop-opacity="0"/>
</linearGradient>
<linearGradient id="paint14_linear_681_4955" x1="-23.2253" y1="319.74" x2="-23.2253" y2="335.595" gradientUnits="userSpaceOnUse">
<stop stop-color="white"/>
<stop offset="1" stop-color="white" stop-opacity="0"/>
</linearGradient>
<linearGradient id="paint15_linear_681_4955" x1="-23.5876" y1="304.897" x2="-23.5876" y2="320.752" gradientUnits="userSpaceOnUse">
<stop stop-color="white"/>
<stop offset="1" stop-color="white" stop-opacity="0"/>
</linearGradient>
<linearGradient id="paint16_linear_681_4955" x1="-17.7237" y1="290.729" x2="-17.7237" y2="306.584" gradientUnits="userSpaceOnUse">
<stop stop-color="white"/>
<stop offset="1" stop-color="white" stop-opacity="0"/>
</linearGradient>
<linearGradient id="paint17_linear_681_4955" x1="-6.87122" y1="276.78" x2="-6.87122" y2="291.88" gradientUnits="userSpaceOnUse">
<stop stop-color="white"/>
<stop offset="1" stop-color="white" stop-opacity="0"/>
</linearGradient>
<linearGradient id="paint18_linear_681_4955" x1="4.98034" y1="263.979" x2="4.98034" y2="278.093" gradientUnits="userSpaceOnUse">
<stop stop-color="white"/>
<stop offset="1" stop-color="white" stop-opacity="0"/>
</linearGradient>
<linearGradient id="paint19_linear_681_4955" x1="22.6483" y1="253.366" x2="22.6483" y2="265.127" gradientUnits="userSpaceOnUse">
<stop stop-color="white"/>
<stop offset="1" stop-color="white" stop-opacity="0"/>
</linearGradient>
<linearGradient id="paint20_linear_681_4955" x1="38.572" y1="242.754" x2="38.572" y2="254.461" gradientUnits="userSpaceOnUse">
<stop stop-color="white"/>
<stop offset="1" stop-color="white" stop-opacity="0"/>
</linearGradient>
<linearGradient id="paint21_linear_681_4955" x1="55.66" y1="232.087" x2="55.66" y2="244.122" gradientUnits="userSpaceOnUse">
<stop stop-color="white"/>
<stop offset="1" stop-color="white" stop-opacity="0"/>
</linearGradient>
<linearGradient id="paint22_linear_681_4955" x1="87.0322" y1="221.364" x2="87.0322" y2="233.4" gradientUnits="userSpaceOnUse">
<stop stop-color="white"/>
<stop offset="1" stop-color="white" stop-opacity="0"/>
</linearGradient>
<linearGradient id="paint23_linear_681_4955" x1="129.406" y1="199.644" x2="129.406" y2="211.406" gradientUnits="userSpaceOnUse">
<stop stop-color="white"/>
<stop offset="1" stop-color="white" stop-opacity="0"/>
</linearGradient>
<linearGradient id="paint24_linear_681_4955" x1="131.735" y1="190.074" x2="131.735" y2="202" gradientUnits="userSpaceOnUse">
<stop stop-color="white"/>
<stop offset="1" stop-color="white" stop-opacity="0"/>
</linearGradient>
<linearGradient id="paint25_linear_681_4955" x1="130.093" y1="180.388" x2="130.093" y2="192.314" gradientUnits="userSpaceOnUse">
<stop stop-color="white"/>
<stop offset="1" stop-color="white" stop-opacity="0"/>
</linearGradient>
<linearGradient id="paint26_linear_681_4955" x1="122.211" y1="171.745" x2="122.211" y2="182.194" gradientUnits="userSpaceOnUse">
<stop stop-color="white"/>
<stop offset="1" stop-color="white" stop-opacity="0"/>
</linearGradient>
<linearGradient id="paint27_linear_681_4955" x1="113.958" y1="163.154" x2="113.958" y2="173.603" gradientUnits="userSpaceOnUse">
<stop stop-color="white"/>
<stop offset="1" stop-color="white" stop-opacity="0"/>
</linearGradient>
<linearGradient id="paint28_linear_681_4955" x1="102.32" y1="154.568" x2="102.32" y2="164.962" gradientUnits="userSpaceOnUse">
<stop stop-color="white"/>
<stop offset="1" stop-color="white" stop-opacity="0"/>
</linearGradient>
<linearGradient id="paint29_linear_681_4955" x1="84.8626" y1="145.981" x2="84.8626" y2="156.375" gradientUnits="userSpaceOnUse">
<stop stop-color="white"/>
<stop offset="1" stop-color="white" stop-opacity="0"/>
</linearGradient>
<linearGradient id="paint30_linear_681_4955" x1="66.9817" y1="137.337" x2="66.9817" y2="147.731" gradientUnits="userSpaceOnUse">
<stop stop-color="white"/>
<stop offset="1" stop-color="white" stop-opacity="0"/>
</linearGradient>
<linearGradient id="paint31_linear_681_4955" x1="52.7512" y1="128.694" x2="52.7512" y2="139.088" gradientUnits="userSpaceOnUse">
<stop stop-color="white"/>
<stop offset="1" stop-color="white" stop-opacity="0"/>
</linearGradient>
<linearGradient id="paint32_linear_681_4955" x1="39.3657" y1="120.104" x2="39.3657" y2="130.498" gradientUnits="userSpaceOnUse">
<stop stop-color="white"/>
<stop offset="1" stop-color="white" stop-opacity="0"/>
</linearGradient>
<linearGradient id="paint33_linear_681_4955" x1="26.3528" y1="112.664" x2="26.3528" y2="121.909" gradientUnits="userSpaceOnUse">
<stop stop-color="white"/>
<stop offset="1" stop-color="white" stop-opacity="0"/>
</linearGradient>
<linearGradient id="paint34_linear_681_4955" x1="18.6281" y1="105.222" x2="18.6281" y2="114.468" gradientUnits="userSpaceOnUse">
<stop stop-color="white"/>
<stop offset="1" stop-color="white" stop-opacity="0"/>
</linearGradient>
<linearGradient id="paint35_linear_681_4955" x1="11.9093" y1="99.0958" x2="11.9093" y2="106.706" gradientUnits="userSpaceOnUse">
<stop stop-color="white"/>
<stop offset="1" stop-color="white" stop-opacity="0"/>
</linearGradient>
<linearGradient id="paint36_linear_681_4955" x1="2.91716" y1="92.8038" x2="2.91716" y2="100.414" gradientUnits="userSpaceOnUse">
<stop stop-color="white"/>
<stop offset="1" stop-color="white" stop-opacity="0"/>
</linearGradient>
<linearGradient id="paint37_linear_681_4955" x1="-4.96549" y1="85.1985" x2="-4.96549" y2="92.8025" gradientUnits="userSpaceOnUse">
<stop stop-color="white"/>
<stop offset="1" stop-color="white" stop-opacity="0"/>
</linearGradient>
<linearGradient id="paint38_linear_681_4955" x1="-14.1706" y1="79.2942" x2="-14.1706" y2="86.8984" gradientUnits="userSpaceOnUse">
<stop stop-color="white"/>
<stop offset="1" stop-color="white" stop-opacity="0"/>
</linearGradient>
<linearGradient id="paint39_linear_681_4955" x1="48.8774" y1="98.7891" x2="48.8774" y2="233.595" gradientUnits="userSpaceOnUse">
<stop stop-color="white"/>
<stop offset="1" stop-color="white" stop-opacity="0"/>
</linearGradient>
<linearGradient id="paint40_linear_681_4955" x1="104.647" y1="242.807" x2="104.647" y2="244.558" gradientUnits="userSpaceOnUse">
<stop stop-color="white"/>
<stop offset="1" stop-color="white" stop-opacity="0"/>
</linearGradient>
<linearGradient id="paint41_linear_681_4955" x1="126.761" y1="231.814" x2="126.761" y2="233.564" gradientUnits="userSpaceOnUse">
<stop stop-color="white"/>
<stop offset="1" stop-color="white" stop-opacity="0"/>
</linearGradient>
<linearGradient id="paint42_linear_681_4955" x1="145.595" y1="221.472" x2="145.595" y2="223.223" gradientUnits="userSpaceOnUse">
<stop stop-color="white"/>
<stop offset="1" stop-color="white" stop-opacity="0"/>
</linearGradient>
<linearGradient id="paint43_linear_681_4955" x1="158.451" y1="211.134" x2="158.451" y2="212.884" gradientUnits="userSpaceOnUse">
<stop stop-color="white"/>
<stop offset="1" stop-color="white" stop-opacity="0"/>
</linearGradient>
<linearGradient id="paint44_linear_681_4955" x1="83.858" y1="253.532" x2="83.858" y2="255.283" gradientUnits="userSpaceOnUse">
<stop stop-color="white"/>
<stop offset="1" stop-color="white" stop-opacity="0"/>
</linearGradient>
<linearGradient id="paint45_linear_681_4955" x1="66.7171" y1="263.869" x2="66.7171" y2="265.619" gradientUnits="userSpaceOnUse">
<stop stop-color="white"/>
<stop offset="1" stop-color="white" stop-opacity="0"/>
</linearGradient>
<linearGradient id="paint46_linear_681_4955" x1="52.169" y1="276.941" x2="52.169" y2="278.747" gradientUnits="userSpaceOnUse">
<stop stop-color="white"/>
<stop offset="1" stop-color="white" stop-opacity="0"/>
</linearGradient>
<linearGradient id="paint47_linear_681_4955" x1="42.4269" y1="290.729" x2="42.4269" y2="292.479" gradientUnits="userSpaceOnUse">
<stop stop-color="white"/>
<stop offset="1" stop-color="white" stop-opacity="0"/>
</linearGradient>
<linearGradient id="paint48_linear_681_4955" x1="38.7305" y1="317.626" x2="170.035" y2="317.626" gradientUnits="userSpaceOnUse">
<stop offset="0.0325884" stop-color="white" stop-opacity="0.3103"/>
<stop offset="0.1778" stop-color="white" stop-opacity="0.8784"/>
<stop offset="0.2122" stop-color="white" stop-opacity="0.8962"/>
<stop offset="0.4125" stop-color="white"/>
<stop offset="0.933" stop-color="white" stop-opacity="0.2884"/>
<stop offset="0.9905" stop-color="white" stop-opacity="0.0407652"/>
<stop offset="1" stop-color="white" stop-opacity="0"/>
</linearGradient>
<linearGradient id="paint49_linear_681_4955" x1="38.1881" y1="317.895" x2="170.564" y2="317.895" gradientUnits="userSpaceOnUse">
<stop offset="0.0325884" stop-color="white" stop-opacity="0.3103"/>
<stop offset="0.1448" stop-color="white" stop-opacity="0.4112"/>
<stop offset="0.7998" stop-color="white"/>
<stop offset="0.8534" stop-color="white" stop-opacity="0.389"/>
<stop offset="0.8622" stop-color="white" stop-opacity="0.2884"/>
<stop offset="0.9805" stop-color="white" stop-opacity="0.0407652"/>
<stop offset="1" stop-color="white" stop-opacity="0"/>
</linearGradient>
<clipPath id="clip0_681_4955">
<rect width="565" height="753" fill="white" transform="translate(-104)"/>
</clipPath>
</defs>
</svg>
