<svg width="25" height="24" viewBox="0 0 25 24" fill="none" xmlns="http://www.w3.org/2000/svg">
<g clip-path="url(#clip0_1201_27)">
<path d="M21.1129 3.51344C16.4259 -1.17214 8.82792 -1.17101 4.14235 3.51602C-0.543232 8.20305 -0.542107 15.801 4.14492 20.4866C8.83195 25.1722 16.4299 25.1711 21.1155 20.484C23.3658 18.233 24.6296 15.1803 24.6289 11.9974C24.6283 8.8151 23.3635 5.76335 21.1129 3.51344ZM18.8025 16.7159C18.802 16.7164 18.8015 16.717 18.8009 16.7175V16.7135L18.1929 17.3175C17.4066 18.1137 16.2614 18.4413 15.1729 18.1815C14.0762 17.8879 13.0337 17.4207 12.0849 16.7975C11.2034 16.2341 10.3864 15.5755 9.64889 14.8335C8.97028 14.1598 8.36063 13.4201 7.82888 12.6255C7.24725 11.7704 6.78689 10.8389 6.46088 9.85746C6.08714 8.70452 6.39685 7.43941 7.26089 6.58947L7.97288 5.87749C8.17083 5.67864 8.49249 5.67794 8.69128 5.87589C8.6918 5.87641 8.69236 5.87692 8.69288 5.87749L10.9409 8.12547C11.1397 8.32343 11.1404 8.64508 10.9425 8.84388C10.9419 8.84439 10.9414 8.84491 10.9409 8.84547L9.62086 10.1655C9.24211 10.5401 9.19449 11.1354 9.50888 11.5655C9.9863 12.2207 10.5146 12.8373 11.0889 13.4095C11.7292 14.0525 12.4252 14.6375 13.1689 15.1575C13.5986 15.4572 14.1811 15.4067 14.5529 15.0375L15.8288 13.7415C16.0268 13.5427 16.3485 13.542 16.5473 13.7399C16.5478 13.7404 16.5483 13.741 16.5488 13.7415L18.8009 15.9975C18.9998 16.1954 19.0005 16.517 18.8025 16.7159Z" fill="white"/>
</g>
<defs>
<clipPath id="clip0_1201_27">
<rect width="24" height="24" fill="white" transform="translate(0.5)"/>
</clipPath>
</defs>
</svg>
