<svg width="24" height="24" viewBox="0 0 24 24" fill="none" xmlns="http://www.w3.org/2000/svg">
<g clip-path="url(#clip0_1201_21)">
<path d="M12.0004 4.42773C9.69238 4.42773 7.81445 6.30548 7.81445 8.61371C7.81445 10.9218 9.69238 12.7995 12.0004 12.7995C14.3085 12.7995 16.1864 10.9218 16.1864 8.61371C16.1864 6.30548 14.3085 4.42773 12.0004 4.42773Z" fill="white"/>
<path d="M12 0C5.38312 0 0 5.38312 0 12C0 15.0615 1.15302 17.8583 3.04669 19.9807C3.45227 18.1998 4.383 16.5749 5.742 15.3091C6.6958 14.4207 7.81183 13.7558 9.01813 13.3423C7.45074 12.3505 6.40778 10.6016 6.40778 8.61365C6.40778 5.52997 8.9165 3.02142 12 3.02142C15.0835 3.02142 17.592 5.52997 17.592 8.61365C17.592 10.6007 16.55 12.349 14.9837 13.3411C16.2903 13.7886 17.488 14.5316 18.4935 15.537C19.7219 16.7655 20.5701 18.3096 20.9524 19.9814C22.8468 17.859 24 15.0619 24 12C24 5.38312 18.6169 0 12 0Z" fill="white"/>
<path d="M4.26953 21.1708C6.35913 22.9349 9.05682 23.9998 11.9991 23.9998C14.9415 23.9998 17.6392 22.9347 19.7288 21.1708C19.5363 19.4225 18.7506 17.7836 17.4984 16.5313C16.0291 15.0621 14.0761 14.2529 11.9991 14.2529C8.04333 14.2529 4.69891 17.2707 4.26953 21.1708Z" fill="white"/>
</g>
<defs>
<clipPath id="clip0_1201_21">
<rect width="24" height="24" fill="white"/>
</clipPath>
</defs>
</svg>
