<svg width="16" height="16" viewBox="0 0 16 16" fill="none" xmlns="http://www.w3.org/2000/svg">
<g clip-path="url(#clip0_1201_5)">
<path d="M7.38298 0C3.49627 0 0.333984 3.16097 0.333984 7.04606C0.333984 10.9314 3.49627 14.0921 7.38298 14.0921C11.2699 14.0921 14.432 10.9314 14.432 7.04606C14.432 3.16097 11.2699 0 7.38298 0ZM7.38298 12.7913C4.21376 12.7913 1.63534 10.214 1.63534 7.04609C1.63534 3.87819 4.21376 1.30081 7.38298 1.30081C10.5522 1.30081 13.1306 3.87816 13.1306 7.04606C13.1306 10.214 10.5522 12.7913 7.38298 12.7913Z" fill="#098961"/>
<path d="M16.1499 14.8893L12.4193 11.1603C12.1651 10.9062 11.7534 10.9062 11.4992 11.1603C11.245 11.4142 11.245 11.8261 11.4992 12.08L15.2298 15.809C15.3569 15.936 15.5233 15.9995 15.6898 15.9995C15.8562 15.9995 16.0228 15.936 16.1499 15.809C16.4041 15.5551 16.4041 15.1432 16.1499 14.8893Z" fill="#098961"/>
</g>
<defs>
<clipPath id="clip0_1201_5">
<rect width="16" height="16" fill="white"/>
</clipPath>
</defs>
</svg>
