<svg width="24" height="24" viewBox="0 0 24 24" fill="none" xmlns="http://www.w3.org/2000/svg">
<g clip-path="url(#clip0_1201_685)">
<path fill-rule="evenodd" clip-rule="evenodd" d="M18 24H6C4.40872 23.9999 2.88264 23.3678 1.75744 22.2426C0.632233 21.1174 6.96138e-05 19.5913 0 18L0 6C6.96138e-05 4.40872 0.632233 2.88264 1.75744 1.75744C2.88264 0.632233 4.40872 6.96138e-05 6 0L18 0C19.5913 0 21.1174 0.632141 22.2426 1.75736C23.3679 2.88258 24 4.4087 24 6V18C24 19.5913 23.3679 21.1174 22.2426 22.2426C21.1174 23.3679 19.5913 24 18 24Z" fill="#2D0F1E"/>
<path fill-rule="evenodd" clip-rule="evenodd" d="M11.25 6.75H18C18.8652 6.74995 19.6974 6.41762 20.3246 5.82165C20.9519 5.22569 21.3263 4.41159 21.3706 3.5475C21.4149 2.68341 21.1256 1.83531 20.5626 1.17835C19.9995 0.521389 19.2057 0.105743 18.345 0.01725C18.2302 0.010875 18.1166 0 18 0H6C4.40872 6.96138e-05 2.88264 0.632233 1.75744 1.75744C0.632233 2.88264 6.96138e-05 4.40872 0 6L0 18C6.96164e-05 15.0163 1.18536 12.1549 3.29513 10.0451C5.40489 7.93536 8.26634 6.75007 11.25 6.75Z" fill="#501432"/>
<path fill-rule="evenodd" clip-rule="evenodd" d="M18 12C16.8133 12 15.6533 12.3519 14.6666 13.0112C13.6799 13.6705 12.9109 14.6075 12.4567 15.7039C12.0026 16.8003 11.8838 18.0067 12.1153 19.1705C12.3468 20.3344 12.9182 21.4035 13.7574 22.2426C14.5965 23.0818 15.6656 23.6532 16.8295 23.8847C17.9933 24.1162 19.1997 23.9974 20.2961 23.5433C21.3925 23.0892 22.3295 22.3201 22.9888 21.3334C23.6481 20.3467 24 19.1867 24 18V6C24 7.5913 23.3679 9.11742 22.2426 10.2426C21.1174 11.3679 19.5913 12 18 12Z" fill="black"/>
<path fill-rule="evenodd" clip-rule="evenodd" d="M12.7495 5.25C12.7494 5.1515 12.7688 5.05396 12.8065 4.96295C12.8442 4.87194 12.8994 4.78925 12.9691 4.7196C13.0387 4.64995 13.1214 4.59471 13.2124 4.55703C13.3034 4.51935 13.401 4.49997 13.4995 4.5H15.0854C15.2588 4.50004 15.4269 4.56018 15.5609 4.67019C15.695 4.7802 15.7868 4.93329 15.8207 5.10338C15.9564 5.77991 16.3225 6.38848 16.8565 6.82547C17.3905 7.26245 18.0595 7.50083 18.7495 7.5C18.848 7.49997 18.9455 7.51935 19.0365 7.55703C19.1275 7.59471 19.2102 7.64995 19.2799 7.7196C19.3495 7.78925 19.4048 7.87194 19.4424 7.96295C19.4801 8.05396 19.4995 8.1515 19.4995 8.25V9.75C19.4995 9.8485 19.4801 9.94604 19.4424 10.037C19.4048 10.1281 19.3495 10.2107 19.2799 10.2804C19.2102 10.35 19.1275 10.4053 19.0365 10.443C18.9455 10.4807 18.848 10.5 18.7495 10.5C17.6961 10.5015 16.661 10.2243 15.7495 9.69637V15.75C15.7494 16.7883 15.4415 17.8032 14.8646 18.6665C14.2878 19.5298 13.4679 20.2026 12.5086 20.5999C11.5494 20.9972 10.4938 21.1012 9.4755 20.8986C8.45718 20.696 7.52179 20.196 6.78761 19.4619C6.05344 18.7277 5.55346 17.7923 5.35089 16.774C5.14832 15.7556 5.25226 14.7001 5.64956 13.7409C6.04687 12.7816 6.7197 11.9617 7.58298 11.3849C8.44625 10.808 9.4612 10.5001 10.4995 10.5C10.598 10.5 10.6955 10.5193 10.7865 10.557C10.8775 10.5947 10.9602 10.65 11.0299 10.7196C11.0995 10.7893 11.1548 10.8719 11.1924 10.963C11.2301 11.054 11.2495 11.1515 11.2495 11.25V12.75C11.2495 12.8485 11.2301 12.946 11.1924 13.037C11.1548 13.1281 11.0995 13.2107 11.0299 13.2804C10.9602 13.35 10.8775 13.4053 10.7865 13.443C10.6955 13.4806 10.598 13.5 10.4995 13.5C10.0544 13.5 9.61934 13.6319 9.24927 13.8791C8.8792 14.1264 8.59076 14.4778 8.42042 14.889C8.25009 15.3002 8.20551 15.7526 8.29233 16.1891C8.37915 16.6256 8.59346 17.0266 8.90817 17.3413C9.22287 17.656 9.62384 17.8703 10.0603 17.9571C10.4969 18.044 10.9493 17.9994 11.3605 17.8291C11.7717 17.6587 12.1231 17.3703 12.3703 17.0002C12.6176 16.6301 12.7495 16.1951 12.7495 15.75V5.25Z" fill="#FE2C55"/>
<path fill-rule="evenodd" clip-rule="evenodd" d="M11.9995 4.5C11.9994 4.4015 12.0188 4.30396 12.0565 4.21295C12.0942 4.12194 12.1494 4.03925 12.2191 3.9696C12.2887 3.89995 12.3714 3.84471 12.4624 3.80703C12.5534 3.76935 12.651 3.74997 12.7495 3.75H14.3354C14.5088 3.75004 14.6769 3.81018 14.8109 3.92019C14.945 4.0302 15.0368 4.18329 15.0707 4.35338C15.2064 5.02991 15.5725 5.63848 16.1065 6.07547C16.6405 6.51245 17.3095 6.75083 17.9995 6.75C18.098 6.74997 18.1955 6.76935 18.2865 6.80703C18.3775 6.84471 18.4602 6.89995 18.5299 6.9696C18.5995 7.03925 18.6548 7.12194 18.6924 7.21295C18.7301 7.30396 18.7495 7.4015 18.7495 7.5V9C18.7495 9.0985 18.7301 9.19604 18.6924 9.28705C18.6548 9.37806 18.5995 9.46075 18.5299 9.5304C18.4602 9.60005 18.3775 9.65529 18.2865 9.69297C18.1955 9.73065 18.098 9.75003 17.9995 9.75C16.9461 9.75154 15.911 9.47428 14.9995 8.94637V15C14.9994 16.0383 14.6915 17.0532 14.1146 17.9165C13.5378 18.7798 12.7179 19.4526 11.7586 19.8499C10.7994 20.2472 9.74383 20.3512 8.7255 20.1486C7.70718 19.946 6.77179 19.446 6.03761 18.7119C5.30344 17.9777 4.80346 17.0423 4.60089 16.024C4.39832 15.0056 4.50226 13.9501 4.89956 12.9909C5.29687 12.0316 5.9697 11.2117 6.83298 10.6349C7.69625 10.058 8.7112 9.75005 9.74948 9.75C9.84798 9.74997 9.94552 9.76935 10.0365 9.80703C10.1275 9.84471 10.2102 9.89995 10.2799 9.9696C10.3495 10.0393 10.4048 10.1219 10.4424 10.213C10.4801 10.304 10.4995 10.4015 10.4995 10.5V12C10.4995 12.0985 10.4801 12.196 10.4424 12.287C10.4048 12.3781 10.3495 12.4607 10.2799 12.5304C10.2102 12.6 10.1275 12.6553 10.0365 12.693C9.94552 12.7306 9.84798 12.75 9.74948 12.75C9.30442 12.75 8.86934 12.8819 8.49927 13.1291C8.1292 13.3764 7.84076 13.7278 7.67042 14.139C7.50009 14.5502 7.45551 15.0026 7.54233 15.4391C7.62915 15.8756 7.84346 16.2766 8.15817 16.5913C8.47287 16.906 8.87384 17.1203 9.31035 17.2071C9.74686 17.294 10.1993 17.2494 10.6105 17.0791C11.0217 16.9087 11.3731 16.6203 11.6203 16.2502C11.8676 15.8801 11.9995 15.4451 11.9995 15V4.5Z" fill="#25F4EE"/>
<path fill-rule="evenodd" clip-rule="evenodd" d="M8.57831 16.9215C8.83377 17.3405 9.21921 17.6646 9.67591 17.8442C10.1326 18.0239 10.6355 18.0493 11.108 17.9166C11.5805 17.7839 11.9967 17.5004 12.2931 17.1092C12.5895 16.7181 12.7499 16.2408 12.7498 15.75V5.25C12.7498 5.1515 12.7692 5.05396 12.8068 4.96295C12.8445 4.87194 12.8998 4.78925 12.9694 4.7196C13.0391 4.64995 13.1218 4.59471 13.2128 4.55703C13.3038 4.51935 13.4013 4.49997 13.4998 4.5H15.0857C15.0921 4.5 15.0981 4.5 15.1041 4.50038C15.2804 5.19742 15.703 5.8071 16.2939 6.21675C16.569 6.61327 16.9362 6.93717 17.3639 7.16067C17.7917 7.38417 18.2672 7.50061 18.7498 7.5V9C18.7498 9.0985 18.7305 9.19604 18.6928 9.28705C18.6551 9.37806 18.5999 9.46075 18.5302 9.5304C18.4606 9.60005 18.3779 9.65529 18.2869 9.69297C18.1959 9.73065 18.0983 9.75003 17.9998 9.75C16.9464 9.75154 15.9114 9.47428 14.9998 8.94637V15C14.9998 15.9932 14.7181 16.966 14.1874 17.8054C13.6567 18.6449 12.8988 19.3167 12.0016 19.7426C11.1045 20.1686 10.1049 20.3314 9.1189 20.212C8.13294 20.0927 7.20105 19.6961 6.43143 19.0684C5.80379 18.2987 5.40731 17.3669 5.28802 16.3809C5.16872 15.395 5.33151 14.3955 5.75748 13.4983C6.18345 12.6012 6.85512 11.8433 7.69454 11.3126C8.53396 10.7818 9.50669 10.5001 10.4998 10.5V12C10.4998 12.0985 10.4805 12.196 10.4428 12.287C10.4051 12.3781 10.3499 12.4607 10.2802 12.5304C10.2106 12.6 10.1279 12.6553 10.0369 12.693C9.94585 12.7306 9.84831 12.75 9.74981 12.75C9.2591 12.7501 8.78187 12.9105 8.3908 13.2069C7.99974 13.5034 7.71628 13.9195 7.5836 14.3919C7.45093 14.8643 7.47631 15.3672 7.65589 15.8239C7.83546 16.2805 8.15938 16.666 8.57831 16.9215Z" fill="white"/>
</g>
<defs>
<clipPath id="clip0_1201_685">
<rect width="24" height="24" fill="white"/>
</clipPath>
</defs>
</svg>
