<svg width="24" height="24" viewBox="0 0 24 24" fill="none" xmlns="http://www.w3.org/2000/svg">
<g clip-path="url(#clip0_1201_665)">
<path fill-rule="evenodd" clip-rule="evenodd" d="M18 24H6C4.40872 23.9999 2.88264 23.3678 1.75744 22.2426C0.632233 21.1174 6.96138e-05 19.5913 0 18L0 6C6.96138e-05 4.40872 0.632233 2.88264 1.75744 1.75744C2.88264 0.632233 4.40872 6.96138e-05 6 0L18 0C19.5913 0 21.1174 0.632141 22.2426 1.75736C23.3679 2.88258 24 4.4087 24 6V18C24 19.5913 23.3679 21.1174 22.2426 22.2426C21.1174 23.3679 19.5913 24 18 24Z" fill="#FF0000"/>
<path fill-rule="evenodd" clip-rule="evenodd" d="M11.25 6.75H18C18.8652 6.74995 19.6974 6.41762 20.3246 5.82165C20.9519 5.22569 21.3263 4.41159 21.3706 3.5475C21.4149 2.68341 21.1256 1.83531 20.5626 1.17835C19.9995 0.521389 19.2057 0.105743 18.345 0.01725C18.2302 0.010875 18.1166 0 18 0H6C4.40872 6.96138e-05 2.88264 0.632233 1.75744 1.75744C0.632233 2.88264 6.96138e-05 4.40872 0 6L0 18C6.96164e-05 15.0163 1.18536 12.1549 3.29513 10.0451C5.40489 7.93536 8.26634 6.75007 11.25 6.75Z" fill="#FF5A51"/>
<path fill-rule="evenodd" clip-rule="evenodd" d="M18 12C16.8133 12 15.6533 12.3519 14.6666 13.0112C13.6799 13.6705 12.9109 14.6075 12.4567 15.7039C12.0026 16.8003 11.8838 18.0067 12.1153 19.1705C12.3468 20.3344 12.9182 21.4035 13.7574 22.2426C14.5965 23.0818 15.6656 23.6532 16.8295 23.8847C17.9933 24.1162 19.1997 23.9974 20.2961 23.5433C21.3925 23.0892 22.3295 22.3201 22.9888 21.3334C23.6481 20.3467 24 19.1867 24 18V6C24 7.5913 23.3679 9.11742 22.2426 10.2426C21.1174 11.3679 19.5913 12 18 12Z" fill="#D5002C"/>
<path fill-rule="evenodd" clip-rule="evenodd" d="M9.393 6.70319C9.27938 6.6332 9.14914 6.59481 9.01573 6.59197C8.88231 6.58913 8.75056 6.62195 8.63407 6.68703C8.51757 6.75212 8.42056 6.84712 8.35305 6.96223C8.28553 7.07733 8.24996 7.20837 8.25 7.34181V16.6576C8.24996 16.791 8.28553 16.922 8.35305 17.0371C8.42056 17.1523 8.51757 17.2472 8.63407 17.3123C8.75056 17.3774 8.88231 17.4102 9.01573 17.4074C9.14914 17.4046 9.27938 17.3662 9.393 17.2962C11.3051 16.1198 15.1226 13.7704 16.962 12.6383C17.0711 12.5712 17.1612 12.4773 17.2237 12.3655C17.2862 12.2537 17.319 12.1278 17.319 11.9997C17.319 11.8716 17.2862 11.7457 17.2237 11.6339C17.1612 11.5221 17.0711 11.4281 16.962 11.3611C15.1226 10.2289 11.3051 7.87956 9.393 6.70319Z" fill="white"/>
</g>
<defs>
<clipPath id="clip0_1201_665">
<rect width="24" height="24" fill="white"/>
</clipPath>
</defs>
</svg>
