<svg width="15" height="14" viewBox="0 0 15 14" fill="none" xmlns="http://www.w3.org/2000/svg">
<path fill-rule="evenodd" clip-rule="evenodd" d="M3.69064 10.8094C3.86149 10.9802 4.13851 10.9802 4.30936 10.8094L11.3093 3.80934C11.4802 3.63848 11.4802 3.36152 11.3093 3.19066C11.1385 3.0198 10.8615 3.0198 10.6907 3.19066L3.69064 10.1906C3.51979 10.3615 3.51979 10.6385 3.69064 10.8094Z" fill="#098961"/>
<path fill-rule="evenodd" clip-rule="evenodd" d="M11 9.625C11.2416 9.625 11.4375 9.42912 11.4375 9.1875V3.5C11.4375 3.25838 11.2416 3.0625 11 3.0625H5.3125C5.07088 3.0625 4.875 3.25838 4.875 3.5C4.875 3.74162 5.07088 3.9375 5.3125 3.9375H10.5625V9.1875C10.5625 9.42912 10.7584 9.625 11 9.625Z" fill="#098961"/>
</svg>
