<svg width="24" height="24" viewBox="0 0 24 24" fill="none" xmlns="http://www.w3.org/2000/svg">
<g clip-path="url(#clip0_1201_677)">
<path fill-rule="evenodd" clip-rule="evenodd" d="M18 24H6C4.40872 23.9999 2.88264 23.3678 1.75744 22.2426C0.632233 21.1174 6.96138e-05 19.5913 0 18L0 6C6.96138e-05 4.40872 0.632233 2.88264 1.75744 1.75744C2.88264 0.632233 4.40872 6.96138e-05 6 0L18 0C19.5913 0 21.1174 0.632141 22.2426 1.75736C23.3679 2.88258 24 4.4087 24 6V18C24 19.5913 23.3679 21.1174 22.2426 22.2426C21.1174 23.3679 19.5913 24 18 24Z" fill="#FF3A55"/>
<path fill-rule="evenodd" clip-rule="evenodd" d="M11.25 6.75H18C18.8652 6.74995 19.6974 6.41762 20.3246 5.82165C20.9519 5.22569 21.3263 4.41159 21.3706 3.5475C21.4149 2.68341 21.1256 1.83531 20.5626 1.17835C19.9995 0.521389 19.2057 0.105743 18.345 0.01725C18.2302 0.010875 18.1166 0 18 0H6C4.40872 6.96138e-05 2.88264 0.632233 1.75744 1.75744C0.632233 2.88264 6.96138e-05 4.40872 0 6L0 18C6.96164e-05 15.0163 1.18536 12.1549 3.29513 10.0451C5.40489 7.93536 8.26634 6.75007 11.25 6.75" fill="#FF796C"/>
<path fill-rule="evenodd" clip-rule="evenodd" d="M18 12C16.8133 12 15.6533 12.3519 14.6666 13.0112C13.6799 13.6705 12.9109 14.6075 12.4567 15.7039C12.0026 16.8003 11.8838 18.0067 12.1153 19.1705C12.3468 20.3344 12.9182 21.4035 13.7574 22.2426C14.5965 23.0818 15.6656 23.6532 16.8295 23.8847C17.9933 24.1162 19.1997 23.9974 20.2961 23.5433C21.3925 23.0892 22.3295 22.3201 22.9888 21.3334C23.6481 20.3467 24 19.1867 24 18V6C24 7.5913 23.3679 9.11742 22.2426 10.2426C21.1174 11.3679 19.5913 12 18 12Z" fill="#E00047"/>
<path d="M16.6875 8.25C17.2053 8.25 17.625 7.83027 17.625 7.3125C17.625 6.79473 17.2053 6.375 16.6875 6.375C16.1697 6.375 15.75 6.79473 15.75 7.3125C15.75 7.83027 16.1697 8.25 16.6875 8.25Z" fill="white"/>
<path fill-rule="evenodd" clip-rule="evenodd" d="M12 9C12.5933 9 13.1734 9.17595 13.6667 9.50559C14.1601 9.83524 14.5446 10.3038 14.7716 10.8519C14.9987 11.4001 15.0581 12.0033 14.9424 12.5853C14.8266 13.1672 14.5409 13.7018 14.1213 14.1213C13.7018 14.5409 13.1672 14.8266 12.5853 14.9424C12.0033 15.0581 11.4001 14.9987 10.8519 14.7716C10.3038 14.5446 9.83524 14.1601 9.50559 13.6667C9.17595 13.1734 9 12.5933 9 12C9.00042 11.2045 9.31662 10.4417 9.87914 9.87914C10.4417 9.31662 11.2045 9.00042 12 9V9ZM12 7.5C12.89 7.5 13.76 7.76392 14.5001 8.25839C15.2401 8.75285 15.8169 9.45566 16.1575 10.2779C16.4981 11.1002 16.5872 12.005 16.4135 12.8779C16.2399 13.7508 15.8113 14.5526 15.182 15.182C14.5526 15.8113 13.7508 16.2399 12.8779 16.4135C12.005 16.5872 11.1002 16.4981 10.2779 16.1575C9.45566 15.8169 8.75285 15.2401 8.25839 14.5001C7.76392 13.76 7.5 12.89 7.5 12C7.50057 10.8067 7.97485 9.66244 8.81864 8.81864C9.66244 7.97485 10.8067 7.50057 12 7.5V7.5Z" fill="white"/>
<path fill-rule="evenodd" clip-rule="evenodd" d="M19.5 8.25C19.5 7.25544 19.1049 6.30161 18.4017 5.59835C17.6984 4.89509 16.7446 4.5 15.75 4.5H8.25C7.25544 4.5 6.30161 4.89509 5.59835 5.59835C4.89509 6.30161 4.5 7.25544 4.5 8.25V15.75C4.5 16.7446 4.89509 17.6984 5.59835 18.4017C6.30161 19.1049 7.25544 19.5 8.25 19.5H15.75C16.7446 19.5 17.6984 19.1049 18.4017 18.4017C19.1049 17.6984 19.5 16.7446 19.5 15.75V8.25ZM21 8.25C21 6.85761 20.4469 5.52226 19.4623 4.53769C18.4777 3.55312 17.1424 3 15.75 3H8.25C6.85761 3 5.52226 3.55312 4.53769 4.53769C3.55312 5.52226 3 6.85761 3 8.25V15.75C3 17.1424 3.55312 18.4777 4.53769 19.4623C5.52226 20.4469 6.85761 21 8.25 21H15.75C17.1424 21 18.4777 20.4469 19.4623 19.4623C20.4469 18.4777 21 17.1424 21 15.75V8.25Z" fill="white"/>
</g>
<defs>
<clipPath id="clip0_1201_677">
<rect width="24" height="24" fill="white"/>
</clipPath>
</defs>
</svg>
