<svg width="24" height="25" viewBox="0 0 24 25" fill="none" xmlns="http://www.w3.org/2000/svg">
<g clip-path="url(#clip0_831_5082)">
<path d="M12.0005 0.541992C9.35447 0.544903 6.81761 1.59727 4.94647 3.46822C3.07533 5.33918 2.02271 7.87593 2.01953 10.522C2.01953 13.092 4.00953 17.114 7.93453 22.476C8.40179 23.1161 9.01359 23.6369 9.72013 23.9959C10.4267 24.3549 11.208 24.542 12.0005 24.542C12.7931 24.542 13.5744 24.3549 14.2809 23.9959C14.9875 23.6369 15.5993 23.1161 16.0665 22.476C19.9915 17.114 21.9815 13.092 21.9815 10.522C21.9784 7.87593 20.9257 5.33918 19.0546 3.46822C17.1835 1.59727 14.6466 0.544903 12.0005 0.541992ZM12.0005 14.5C11.2094 14.5 10.436 14.2654 9.77825 13.8259C9.12045 13.3863 8.60776 12.7616 8.30501 12.0307C8.00226 11.2998 7.92305 10.4956 8.07739 9.71963C8.23173 8.94371 8.61269 8.23098 9.1721 7.67157C9.73151 7.11216 10.4442 6.73119 11.2202 6.57685C11.9961 6.42251 12.8004 6.50172 13.5313 6.80448C14.2622 7.10723 14.8869 7.61992 15.3264 8.27771C15.7659 8.93551 16.0005 9.70887 16.0005 10.5C16.0005 11.5609 15.5791 12.5783 14.829 13.3284C14.0788 14.0786 13.0614 14.5 12.0005 14.5Z" fill="url(#paint0_linear_831_5082)"/>
</g>
<defs>
<linearGradient id="paint0_linear_831_5082" x1="19.3199" y1="19.022" x2="3.72054" y2="9.16619" gradientUnits="userSpaceOnUse">
<stop stop-color="#E85300"/>
<stop offset="1" stop-color="#FBAF00"/>
</linearGradient>
<clipPath id="clip0_831_5082">
<rect width="24" height="24" fill="white" transform="translate(0 0.5)"/>
</clipPath>
</defs>
</svg>
