<svg width="63" height="24" viewBox="0 0 63 24" fill="none" xmlns="http://www.w3.org/2000/svg">
<path d="M60.5021 10.3174C57.9734 9.2775 57.5884 11.2845 56.8808 12.522C56.2803 13.8787 55.8335 15.2982 55.5488 16.7542L55.7778 19.7387C59.0036 19.7387 60.3981 17.0558 61.7092 14.9344C62.3024 13.9778 63.2701 11.4404 60.5021 10.3174Z" fill="#939393"/>
<path d="M15.2058 7.28109L14.1652 6.24121C13.4264 6.54278 12.3441 6.24121 12.084 7.34348C10.5439 7.96741 10.2526 8.80971 10.9914 10.4631C11.0644 10.7046 11.1895 10.9271 11.3579 11.1151C11.5263 11.303 11.7339 11.4518 11.966 11.5509C12.1982 11.6501 12.4492 11.6971 12.7015 11.6888C12.9538 11.6806 13.2012 11.6171 13.4264 11.503C15.0393 10.7959 16.9852 10.0264 16.2464 7.53065C15.851 7.41627 15.5284 7.34348 15.2058 7.28109Z" fill="#939393"/>
<path d="M31.563 6.05361C31.7196 5.33313 31.7895 4.59654 31.7712 3.85948C31.5526 2.44524 32.9575 0.0535226 29.8981 0.157511C28.1291 0.219903 25.6108 -0.747175 24.872 1.46777C23.9771 4.14026 26.6514 4.01548 28.306 4.58741C29.3778 4.88898 29.6171 6.66714 31.563 6.05361Z" fill="#939393"/>
<path d="M6.78649 16.7854C6.43609 16.7887 6.08713 16.8305 5.74589 16.9102C3.08196 16.2966 2.40558 19.3019 0.386822 19.853C0.101625 20.505 -0.0289338 21.214 0.00536292 21.9247C0.0396597 22.6355 0.237886 23.3286 0.584538 23.9502C2.41599 22.3176 4.47637 20.9033 5.78752 18.7508C6.12052 18.8028 6.46391 18.8236 6.82812 18.886C7.48597 18.9016 8.13519 19.0391 8.74282 19.2915C10.5847 20.4665 11.9271 19.7699 11.3547 17.9085C10.7824 16.0471 8.38901 16.9726 6.78649 16.7854Z" fill="#939393"/>
<path d="M32.4588 9.49607C32.2515 9.44398 32.0348 9.44211 31.8266 9.49061C31.6185 9.53911 31.4249 9.63655 31.262 9.77489C31.0992 9.91322 30.9717 10.0885 30.8903 10.2859C30.8088 10.4834 30.7758 10.6975 30.7939 10.9103C30.7939 11.8254 30.95 12.7613 32.105 12.4805C32.7282 12.2509 33.2982 11.8971 33.7804 11.4406C33.7804 9.80803 33.1976 9.54806 32.4588 9.49607Z" fill="#939393"/>
</svg>
