<svg width="51" height="52" viewBox="0 0 51 52" fill="none" xmlns="http://www.w3.org/2000/svg">
<path d="M40.9602 3.78672L38.7209 1.7354C36.7429 1.7354 35.4925 -0.744822 33.2718 0.224889C29.5396 7.14341 35.6418 5.14809 38.5529 6.04321L40.4191 7.90804C40.6803 9.08288 40.9789 10.7612 42.2852 10.5001C44.8418 10.0526 43.9833 7.62828 44.1513 5.94993C44.6178 3.13404 43.1249 2.83566 40.9602 3.78672Z" fill="#939393"/>
<path d="M12.427 42.8175C13.0429 41.251 15.8047 39.554 13.9386 38.1927C10.5049 35.6938 7.05259 38.1927 3.88019 39.7964C2.89115 40.2813 1.11837 41.1951 2.51796 43.2464C4.68266 46.4166 6.71671 43.638 8.80676 43.3769C10.4676 45.4469 12.3524 49.2698 14.8903 47.5169C17.4282 45.7639 12.5763 44.8874 12.427 42.8175Z" fill="#939393"/>
<path d="M0 28.9056C1.62352 30.528 3.34028 29.8566 4.94514 29.838C6.81126 29.521 6.92325 27.9732 7.1845 26.5745C9.23723 27.1153 11.2153 29.5956 13.38 26.5745C14.7983 24.5792 12.9134 24.0197 12.167 23.0314C11.5315 21.9769 10.5224 21.1998 9.34015 20.8543C8.15785 20.5089 6.88879 20.6203 5.78491 21.1665C3.07905 22.4346 4.23606 24.4114 5.2251 26.2389H5.0571V26.4254L0 28.9056Z" fill="#939393"/>
<path d="M47.8844 48.5982L44.5254 49.4001C45.1039 50.1087 45.5331 51.1717 46.2609 51.4327C48.6868 52.3652 49.0227 49.9409 50.1051 48.7287C50.385 48.1879 50.6649 47.6471 50.9635 47.1063C49.396 46.435 48.3322 46.8639 47.8844 48.5982Z" fill="#939393"/>
</svg>
