<svg width="48" height="48" viewBox="0 0 48 48" fill="none" xmlns="http://www.w3.org/2000/svg">
<path d="M35.4367 6.09862C33.3619 4.39975 30.9359 3.18252 28.3337 2.53473C25.7315 1.88695 23.0179 1.82475 20.3887 2.35262C17.0082 3.0457 13.8981 4.69593 11.429 7.10672C8.9599 9.51751 7.23581 12.5872 6.46213 15.9503C5.68845 19.3133 5.89779 22.8278 7.0652 26.0752C8.23262 29.3226 10.3089 32.166 13.0467 34.2666C16.1726 36.5545 18.834 39.4168 20.8887 42.7006L22.2887 45.0286C22.4666 45.3243 22.7178 45.569 23.0182 45.7389C23.3185 45.9087 23.6577 45.998 24.0027 45.998C24.3478 45.998 24.687 45.9087 24.9873 45.7389C25.2877 45.569 25.5389 45.3243 25.7167 45.0286L27.0587 42.7926C28.848 39.6474 31.2876 36.92 34.2147 34.7926C36.51 33.2135 38.4068 31.1226 39.7556 28.6849C41.1044 26.2472 41.8683 23.5294 41.987 20.746C42.1057 17.9625 41.5759 15.1896 40.4395 12.6459C39.3031 10.1022 37.5912 7.85743 35.4387 6.08862L35.4367 6.09862ZM24.0007 28.0006C22.4185 28.0006 20.8718 27.5314 19.5562 26.6524C18.2406 25.7733 17.2152 24.5239 16.6097 23.0621C16.0042 21.6003 15.8458 19.9918 16.1545 18.4399C16.4631 16.8881 17.2251 15.4626 18.3439 14.3438C19.4627 13.2249 20.8882 12.463 22.44 12.1543C23.9919 11.8457 25.6004 12.0041 27.0622 12.6096C28.524 13.2151 29.7735 14.2405 30.6525 15.5561C31.5316 16.8717 32.0007 18.4184 32.0007 20.0006C32.0007 22.1224 31.1579 24.1572 29.6576 25.6575C28.1573 27.1578 26.1225 28.0006 24.0007 28.0006Z" fill="url(#paint0_linear_831_7175)"/>
<defs>
<linearGradient id="paint0_linear_831_7175" x1="8.94136" y1="1.99804" x2="42.5654" y2="4.55861" gradientUnits="userSpaceOnUse">
<stop stop-color="#07A372"/>
<stop offset="1" stop-color="#0CC58B"/>
</linearGradient>
</defs>
</svg>
