<svg width="48" height="48" viewBox="0 0 48 48" fill="none" xmlns="http://www.w3.org/2000/svg">
<g clip-path="url(#clip0_681_4874)">
<path d="M43.7578 22.7591V8.08599C43.7578 7.86605 43.6975 7.66477 43.6078 7.47952C43.6619 7.32961 43.7578 7.19733 43.7578 7.0313C43.7578 6.40373 43.3418 5.85164 42.7374 5.67858L23.0499 0.0535781C22.7973 -0.0178594 22.5308 -0.0178594 22.2782 0.0535781L2.59069 5.67858C1.98638 5.85164 1.57031 6.40373 1.57031 7.0313C1.57031 7.65886 1.98638 8.21095 2.59069 8.38402L10.0078 10.5031V12.1674C10.0078 13.7672 10.8964 15.2381 12.271 15.9137C18.5744 19.0119 26.751 19.0105 33.0572 15.9151C34.4318 15.2395 35.3204 13.7686 35.3204 12.1674V10.5031L40.9454 8.89608V22.7591C39.3121 23.3415 38.1329 24.8879 38.1329 26.7188V29.5313C38.1329 30.3086 38.7619 30.9375 39.5392 30.9375H45.1642C45.9414 30.9375 46.5704 30.3086 46.5704 29.5313V26.7188C46.5703 24.8879 45.3911 23.3416 43.7578 22.7591Z" fill="url(#paint0_linear_681_4874)"/>
<path d="M34.1539 18.6266C30.619 20.3637 26.5967 21.2811 22.5221 21.2811C18.4476 21.2811 14.4238 20.3623 10.8876 18.6251C10.5422 18.4554 10.2562 18.2037 9.94922 17.9795C10.2496 23.0411 12.9728 27.336 16.8215 29.5364C16.8215 29.5364 18.7956 30.4691 19.4123 30.6444L19.4148 30.6398C20.4137 30.9246 21.4421 31.1249 22.522 31.1249C23.5108 31.1249 24.9192 30.9276 26.3266 30.4079C26.9749 30.1771 28.2181 29.5393 28.2181 29.5393C32.0691 27.3397 34.7942 23.0434 35.0949 17.9801C34.7872 18.2047 34.5003 18.4564 34.1539 18.6266Z" fill="url(#paint1_linear_681_4874)"/>
<path d="M22.522 33.9374C21.3884 33.9374 20.2974 33.7625 19.2344 33.5059L22.522 38.4374L25.7912 33.5105C24.7337 33.7641 23.6492 33.9374 22.522 33.9374Z" fill="url(#paint2_linear_681_4874)"/>
<path d="M30.6183 31.415C30.5933 31.4318 30.5654 31.4433 30.5406 31.46L29.3578 33.2342C29.3578 33.2996 23.966 41.364 23.9297 41.4184V47.9998H42.2109C42.9882 47.9998 43.6172 47.3708 43.6172 46.5935C43.6172 38.9141 37.9651 32.6104 30.6183 31.415ZM33.7734 42.3748H30.9609C30.1837 42.3748 29.5547 41.7458 29.5547 40.9685C29.5547 40.1913 30.1837 39.5623 30.9609 39.5623H33.7734C34.5507 39.5623 35.1797 40.1913 35.1797 40.9685C35.1797 41.7458 34.5507 42.3748 33.7734 42.3748Z" fill="url(#paint3_linear_681_4874)"/>
<path d="M14.4807 31.4437C14.4578 31.4284 14.4323 31.4178 14.4095 31.4023C7.07044 32.6058 1.42969 38.9188 1.42969 46.5935C1.42969 47.3708 2.05866 47.9998 2.83594 47.9998H21.1172V41.4184C14.7442 31.8424 16.0447 33.7974 14.4807 31.4437Z" fill="url(#paint4_linear_681_4874)"/>
</g>
<defs>
<linearGradient id="paint0_linear_681_4874" x1="40.5704" y1="23.8219" x2="18.4148" y2="-0.657692" gradientUnits="userSpaceOnUse">
<stop stop-color="#E85300"/>
<stop offset="1" stop-color="#FBAF00"/>
</linearGradient>
<linearGradient id="paint1_linear_681_4874" x1="31.7422" y1="28.1015" x2="22.9055" y2="15.2613" gradientUnits="userSpaceOnUse">
<stop stop-color="#E85300"/>
<stop offset="1" stop-color="#FBAF00"/>
</linearGradient>
<linearGradient id="paint2_linear_681_4874" x1="24.9169" y1="37.3031" x2="21.3678" y2="33.7187" gradientUnits="userSpaceOnUse">
<stop stop-color="#E85300"/>
<stop offset="1" stop-color="#FBAF00"/>
</linearGradient>
<linearGradient id="paint3_linear_681_4874" x1="40.9922" y1="44.1853" x2="29.1196" y2="33.4795" gradientUnits="userSpaceOnUse">
<stop stop-color="#E85300"/>
<stop offset="1" stop-color="#FBAF00"/>
</linearGradient>
<linearGradient id="paint4_linear_681_4874" x1="18.4922" y1="44.1823" x2="6.61152" y2="33.4774" gradientUnits="userSpaceOnUse">
<stop stop-color="#E85300"/>
<stop offset="1" stop-color="#FBAF00"/>
</linearGradient>
<clipPath id="clip0_681_4874">
<rect width="48" height="48" fill="white"/>
</clipPath>
</defs>
</svg>
