<svg width="48" height="48" viewBox="0 0 48 48" fill="none" xmlns="http://www.w3.org/2000/svg">
<path fill-rule="evenodd" clip-rule="evenodd" d="M12.3397 37.314C12.8559 36.422 13.8209 35.8213 14.9249 35.8213C16.0289 35.8213 16.9936 36.422 17.5101 37.314H43.2829C44.1068 37.314 44.7755 37.9828 44.7755 38.8063C44.7755 39.6302 44.1068 40.2989 43.2829 40.2989H17.5101C16.9936 41.1909 16.0289 41.7916 14.9249 41.7916C13.8209 41.7916 12.8559 41.1909 12.3397 40.2989H4.47703C3.65315 40.2989 2.98438 39.6302 2.98438 38.8063C2.98438 37.9828 3.65315 37.314 4.47703 37.314H12.3397ZM44.7755 10.4483C44.7755 7.97524 42.771 5.9707 40.2979 5.9707C33.0696 5.9707 14.6906 5.9707 7.46199 5.9707C4.98927 5.9707 2.98438 7.97524 2.98438 10.4483V28.3588C2.98438 30.8315 4.98927 32.8364 7.46199 32.8364H40.2979C42.771 32.8364 44.7755 30.8315 44.7755 28.3588V10.4483ZM27.7606 20.5974C28.1364 20.3155 28.3577 19.8731 28.3577 19.4035C28.3577 18.9336 28.1364 18.4912 27.7606 18.2093L21.7903 13.7317C21.3383 13.3924 20.7333 13.338 20.2275 13.5909C19.7217 13.8438 19.4025 14.3603 19.4025 14.9259V23.8811C19.4025 24.4464 19.7217 24.9633 20.2275 25.2158C20.7333 25.4687 21.3383 25.4143 21.7903 25.0751L27.7606 20.5974Z" fill="url(#paint0_linear_681_4894)"/>
<defs>
<linearGradient id="paint0_linear_681_4894" x1="39.2034" y1="33.5528" x2="13.6099" y2="10.8713" gradientUnits="userSpaceOnUse">
<stop stop-color="#E85300"/>
<stop offset="1" stop-color="#FBAF00"/>
</linearGradient>
</defs>
</svg>
