<svg width="48" height="48" viewBox="0 0 48 48" fill="none" xmlns="http://www.w3.org/2000/svg">
<path fill-rule="evenodd" clip-rule="evenodd" d="M34.5901 36.8999C33.4639 38.5139 32.2027 40.0294 30.8201 41.4299C30.0864 42.2592 29.0915 42.8131 28.0001 42.9999C27.1315 42.9466 26.2897 42.6786 25.5501 42.2199C25.0071 41.9293 24.4887 41.5948 24.0001 41.2199V42.9999C24.0001 43.2651 23.8947 43.5195 23.7072 43.707C23.5197 43.8946 23.2653 43.9999 23.0001 43.9999H7.0001C6.73488 43.9999 6.48052 43.8946 6.29299 43.707C6.10545 43.5195 6.00009 43.2651 6.00009 42.9999V34.9999C6.07527 32.6713 7.02084 30.4554 8.65009 28.7899L12.2901 34.5099C12.3723 34.6495 12.4871 34.767 12.6247 34.8523C12.7623 34.9377 12.9186 34.9883 13.0801 34.9999C13.2403 35.0086 13.4003 34.9786 13.5465 34.9125C13.6927 34.8464 13.8208 34.746 13.9201 34.6199L17.0701 30.6899L20.2201 34.6199C20.3208 34.7462 20.4506 34.8463 20.5985 34.9115C20.7463 34.9767 20.9077 35.0051 21.0689 34.9942C21.2301 34.9834 21.3863 34.9337 21.5241 34.8494C21.6618 34.765 21.7771 34.6486 21.8601 34.5099L25.4401 28.8799C26.6195 30.0539 27.4265 31.5496 27.7601 33.1799L30.0001 31.5099L34.6101 36.8999H34.5901ZM31.4501 30.1499C31.7973 29.8458 32.2016 29.6139 32.6395 29.468C33.0773 29.322 33.5399 29.2649 34.0001 29.2999H34.2701L41.2001 19.3999C41.3571 19.1974 41.5858 19.0629 41.8391 19.0241C42.0923 18.9853 42.3508 19.0452 42.5612 19.1915C42.7716 19.3377 42.9178 19.5591 42.9697 19.8101C43.0216 20.061 42.9752 20.3222 42.8401 20.5399L36.0801 30.1999C36.2365 30.3478 36.3803 30.5083 36.5101 30.6799C37.0128 31.3482 37.2572 32.1756 37.1984 33.0097C37.1396 33.8439 36.7815 34.6288 36.1901 35.2199L35.9801 35.4399L31.4501 30.1499ZM22.8101 27.3299C23.1501 27.4699 23.4401 27.5999 23.6901 27.7199L20.8801 32.2499L19.0801 29.8099L22.8101 27.3299ZM11.1801 27.3299L15.0001 29.8799L13.2501 32.2499L10.4001 27.6599L11.1701 27.3199L11.1801 27.3299ZM13.0001 22.9299V25.9999C13.0009 26.1646 13.0425 26.3266 13.121 26.4714C13.1995 26.6162 13.3125 26.7393 13.4501 26.8299L16.4501 28.8299C16.6134 28.9375 16.8046 28.9948 17.0001 28.9948C17.1956 28.9948 17.3868 28.9375 17.5501 28.8299L20.5501 26.8299C20.6877 26.7393 20.8007 26.6162 20.8792 26.4714C20.9577 26.3266 20.9992 26.1646 21.0001 25.9999V22.9299C22.2151 22.2249 23.2251 21.215 23.9301 19.9999H26.0001C26.7957 19.9999 27.5588 19.6839 28.1214 19.1212C28.684 18.5586 29.0001 17.7956 29.0001 16.9999V15.9999C28.9989 15.542 28.8928 15.0905 28.6901 14.6799C27.3501 15.6099 24.6901 16.6799 19.8601 16.0199C18.0701 15.7599 15.3201 14.0899 14.0701 13.2799C12.9247 14.2616 11.5024 14.8627 10.0001 14.9999C8.5812 14.9275 7.20434 14.4938 6.00009 13.7399C5.68246 14.024 5.429 14.3725 5.25657 14.7622C5.08414 15.1519 4.99671 15.5738 5.00009 15.9999V16.9999C5.00009 17.7956 5.31617 18.5586 5.87877 19.1212C6.44138 19.6839 7.20445 19.9999 8.0001 19.9999H10.1001C10.7968 21.2112 11.7961 22.2208 13.0001 22.9299ZM10.0001 12.9999C10.5272 12.9828 11.0436 12.8472 11.511 12.6031C11.9784 12.359 12.3849 12.0127 12.7001 11.5899C12.9292 11.3118 13.1333 11.0139 13.3101 10.6999C14.8701 11.9999 18.2101 13.9999 24.0001 13.9999C24.471 13.9899 24.9348 13.8836 25.3631 13.6876C25.7913 13.4915 26.1748 13.2098 26.4901 12.8599C27.4617 11.8094 28.0009 10.4309 28.0001 8.99992C28.0919 8.12586 27.899 7.24551 27.4501 6.48992C27.2229 5.93862 26.8275 5.47314 26.3201 5.15992C25.9812 4.98651 25.611 4.88299 25.2313 4.8555C24.8517 4.82801 24.4704 4.87713 24.1101 4.99992C23.3802 5.22503 22.6736 5.51972 22.0001 5.87992C20.8301 5.33992 17.8001 3.99992 16.0001 3.99992C14.1208 3.96659 12.2603 4.37776 10.5701 5.19992C9.4501 5.77992 7.0001 7.99992 7.1701 10.1999C7.18341 10.8939 7.42999 11.5632 7.8701 12.0999C8.13721 12.3972 8.46655 12.632 8.8347 12.7875C9.20284 12.9431 9.60074 13.0156 10.0001 12.9999Z" fill="url(#paint0_linear_681_4858)"/>
<defs>
<linearGradient id="paint0_linear_681_4858" x1="37.9251" y1="34.7995" x2="10.605" y2="15.0903" gradientUnits="userSpaceOnUse">
<stop stop-color="#E85300"/>
<stop offset="1" stop-color="#FBAF00"/>
</linearGradient>
</defs>
</svg>
