<svg width="49" height="49" viewBox="0 0 49 49" fill="none" xmlns="http://www.w3.org/2000/svg">
<path d="M1.5138 48.7467C0.868229 48.7467 0.291017 48.291 0.169498 47.6303C0.0327894 46.886 0.518863 46.172 1.26317 46.0353C23.8201 41.8125 41.8125 23.8201 46.0353 1.26317C46.172 0.518863 46.886 0.0327894 47.6303 0.169498C48.3746 0.306207 48.8606 1.02013 48.7239 1.76443C47.6303 7.61254 45.6556 13.248 42.853 18.5037C40.1113 23.6454 36.6252 28.3543 32.4935 32.486C28.3619 36.6176 23.653 40.1037 18.5113 42.8454C13.2556 45.648 7.62013 47.6227 1.77203 48.7163C1.68089 48.7391 1.59734 48.7467 1.5138 48.7467Z" fill="white"/>
</svg>
