<svg width="49" height="49" viewBox="0 0 49 49" fill="none" xmlns="http://www.w3.org/2000/svg">
<path d="M47.3796 48.6002C46.7341 48.6002 46.1568 48.1445 46.0353 47.4838C41.8125 24.9268 23.8201 6.93441 1.26317 2.71162C0.518863 2.57491 0.0327894 1.86099 0.169498 1.11668C0.306207 0.372381 1.02013 -0.113695 1.76443 0.0230138C7.61254 1.11668 13.248 3.09137 18.5037 5.8939C23.6454 8.63567 28.3543 12.1217 32.486 16.2534C36.6176 20.385 40.1037 25.0939 42.8454 30.2357C45.648 35.4914 47.6227 41.1268 48.7163 46.9749C48.853 47.7192 48.367 48.4331 47.6227 48.5698C47.5467 48.5926 47.4632 48.6002 47.3796 48.6002Z" fill="white"/>
</svg>
