<svg width="49" height="49" viewBox="0 0 49 49" fill="none" xmlns="http://www.w3.org/2000/svg">
<path d="M1.36732 48.6005C1.28377 48.6005 1.20023 48.5929 1.11668 48.5777C0.372381 48.441 -0.113695 47.727 0.0230138 46.9827C1.11668 41.1346 3.09137 35.4992 5.8939 30.2435C8.63567 25.1017 12.1217 20.3929 16.2534 16.2612C20.385 12.1296 25.0939 8.64349 30.2357 5.90171C35.4914 3.09918 41.1268 1.1245 46.9749 0.0308263C47.7192 -0.105883 48.4331 0.380193 48.5698 1.1245C48.7066 1.8688 48.2205 2.58273 47.4762 2.71943C24.9192 6.94222 6.92681 24.9346 2.70403 47.4916C2.5901 48.1372 2.01289 48.6005 1.36732 48.6005Z" fill="white"/>
</svg>
