<svg width="49" height="49" viewBox="0 0 49 49" fill="none" xmlns="http://www.w3.org/2000/svg">
<path d="M47.2334 48.7469C47.1498 48.7469 47.0663 48.7393 46.9827 48.7241C41.1346 47.6305 35.4992 45.6558 30.2435 42.8533C25.1017 40.1115 20.3929 36.6254 16.2612 32.4938C12.1296 28.3621 8.64348 23.6533 5.90171 18.5115C3.09918 13.2558 1.1245 7.62035 0.0308263 1.77225C-0.105883 1.02794 0.380193 0.314019 1.1245 0.177311C1.8688 0.0406017 2.58272 0.52668 2.71943 1.27098C6.94222 23.8279 24.9346 41.8204 47.4916 46.0431C48.2359 46.1798 48.722 46.8938 48.5853 47.6381C48.4485 48.2912 47.8789 48.7469 47.2334 48.7469Z" fill="white"/>
</svg>
